<svg viewBox="0 0 721.387 721.387" xmlns="http://www.w3.org/2000/svg">
<g id="slice:2:4_4_0:3">
<path d="M637.505,83.8822 C651.082 74.8313,651.082 74.8313,660.133 61.2548 L682.76,83.8822 C669.183 92.9332,669.183 92.9332,660.133 106.51 C646.556 115.561,646.556 115.561,637.505 129.137 L614.878,106.51 C628.454 97.4587,628.454 97.4587,637.505 83.8822" stroke="none" fill-opacity="0.75" fill="#4DA6FF"/>
<path d="M637.505,83.8822 C651.082 74.8313,651.082 74.8313,660.133 61.2548 L682.76,83.8822 C669.183 92.9332,669.183 92.9332,660.133 106.51 C646.556 115.561,646.556 115.561,637.505 129.137 L614.878,106.51 C628.454 97.4587,628.454 97.4587,637.505 83.8822" stroke="black" fill="none"/>
</g>
<g id="slice:5:2_2_1:5">
<path d="M245.796,245.796 C259.372 236.745,259.372 236.745,268.423 223.168 L291.051,245.796 C277.474 254.847,277.474 254.847,268.423 268.423 C254.847 277.474,254.847 277.474,245.796 291.051 L223.168,268.423 C236.745 259.372,236.745 259.372,245.796 245.796" stroke="none" fill-opacity="0.75" fill="#4DA6FF"/>
<path d="M245.796,245.796 C259.372 236.745,259.372 236.745,268.423 223.168 L291.051,245.796 C277.474 254.847,277.474 254.847,268.423 268.423 C254.847 277.474,254.847 277.474,245.796 291.051 L223.168,268.423 C236.745 259.372,236.745 259.372,245.796 245.796" stroke="black" fill="none"/>
</g>
<g id="slice:6:4_2_1:5">
<path d="M291.051,245.796 C304.627 236.745,304.627 236.745,313.678 223.168 L336.305,245.796 C322.729 254.847,322.729 254.847,313.678 268.423 C300.102 277.474,300.102 277.474,291.051 291.051 L268.423,268.423 C282 259.372,282 259.372,291.051 245.796" stroke="none" fill-opacity="0.75" fill="#FF4040"/>
<path d="M291.051,245.796 C304.627 236.745,304.627 236.745,313.678 223.168 L336.305,245.796 C322.729 254.847,322.729 254.847,313.678 268.423 C300.102 277.474,300.102 277.474,291.051 291.051 L268.423,268.423 C282 259.372,282 259.372,291.051 245.796" stroke="black" fill="none"/>
</g>
<g id="slice:9:2_4_1:10">
<path d="M407.709,452.964 C421.286 443.913,421.286 443.913,430.337 430.337 L452.964,452.964 C439.388 462.015,439.388 462.015,430.337 475.592 C416.76 484.643,416.76 484.643,407.709 498.219 L385.082,475.592 C398.658 466.541,398.658 466.541,407.709 452.964" stroke="none" fill-opacity="0.75" fill="#FF4040"/>
<path d="M407.709,452.964 C421.286 443.913,421.286 443.913,430.337 430.337 L452.964,452.964 C439.388 462.015,439.388 462.015,430.337 475.592 C416.76 484.643,416.76 484.643,407.709 498.219 L385.082,475.592 C398.658 466.541,398.658 466.541,407.709 452.964" stroke="black" fill="none"/>
</g>
<g id="slice:10:4_4_1:10">
<path d="M452.964,452.964 C466.541 443.913,466.541 443.913,475.592 430.337 L498.219,452.964 C484.643 462.015,484.643 462.015,475.592 475.592 C462.015 484.643,462.015 484.643,452.964 498.219 L430.337,475.592 C443.913 466.541,443.913 466.541,452.964 452.964" stroke="none" fill-opacity="0.75" fill="#4DA6FF"/>
<path d="M452.964,452.964 C466.541 443.913,466.541 443.913,475.592 430.337 L498.219,452.964 C484.643 462.015,484.643 462.015,475.592 475.592 C462.015 484.643,462.015 484.643,452.964 498.219 L430.337,475.592 C443.913 466.541,443.913 466.541,452.964 452.964" stroke="black" fill="none"/>
</g>
<g id="slice:13:2_2_2:12">
<path d="M61.2548,614.878 C74.8313 605.827,74.8313 605.827,83.8822 592.25 L106.51,614.878 C92.9332 623.929,92.9332 623.929,83.8822 637.505 C70.3058 646.556,70.3058 646.556,61.2548 660.133 L38.6274,637.505 C52.2039 628.454,52.2039 628.454,61.2548 614.878" stroke="none" fill-opacity="0.75" fill="#4DA6FF"/>
<path d="M61.2548,614.878 C74.8313 605.827,74.8313 605.827,83.8822 592.25 L106.51,614.878 C92.9332 623.929,92.9332 623.929,83.8822 637.505 C70.3058 646.556,70.3058 646.556,61.2548 660.133 L38.6274,637.505 C52.2039 628.454,52.2039 628.454,61.2548 614.878" stroke="black" fill="none"/>
</g>
<g id="slice:1:2_2_0:1">
<path d="M223.168,38.6274 L268.423,38.6274 L245.796,61.2548 L268.423,83.8822 L223.168,83.8822 L223.168,38.6274" stroke="none" fill-opacity="0.75" fill="#4DA6FF"/>
<path d="M223.168,38.6274 L268.423,38.6274 L245.796,61.2548 L268.423,83.8822 L223.168,83.8822 L223.168,38.6274" stroke="black" fill="none"/>
</g>
<g id="slice:2:4_4_0:1">
<path d="M268.423,83.8822 L313.678,83.8822 L291.051,106.51 L313.678,129.137 L268.423,129.137 L268.423,83.8822" stroke="none" fill-opacity="0.75" fill="#4DA6FF"/>
<path d="M268.423,83.8822 L313.678,83.8822 L291.051,106.51 L313.678,129.137 L268.423,129.137 L268.423,83.8822" stroke="black" fill="none"/>
</g>
<g id="slice:1:2_2_0:2">
<path d="M407.709,38.6274 L452.964,38.6274 L430.337,61.2548 L452.964,83.8822 L407.709,83.8822 L407.709,38.6274" stroke="none" fill-opacity="0.75" fill="#4DA6FF"/>
<path d="M407.709,38.6274 L452.964,38.6274 L430.337,61.2548 L452.964,83.8822 L407.709,83.8822 L407.709,38.6274" stroke="black" fill="none"/>
</g>
<g id="slice:2:4_4_0:2">
<path d="M452.964,83.8822 L498.219,83.8822 L475.592,106.51 L498.219,129.137 L452.964,129.137 L452.964,83.8822" stroke="none" fill-opacity="0.75" fill="#4DA6FF"/>
<path d="M452.964,83.8822 L498.219,83.8822 L475.592,106.51 L498.219,129.137 L452.964,129.137 L452.964,83.8822" stroke="black" fill="none"/>
</g>
<g id="slice:1:2_2_0:3">
<path d="M592.25,38.6274 L614.878,16 L637.505,38.6274 C623.929 47.6784,623.929 47.6784,614.878 61.2548 C601.301 70.3058,601.301 70.3058,592.25 83.8822 L592.25,38.6274" stroke="none" fill-opacity="0.75" fill="#4DA6FF"/>
<path d="M592.25,38.6274 L614.878,16 L637.505,38.6274 C623.929 47.6784,623.929 47.6784,614.878 61.2548 C601.301 70.3058,601.301 70.3058,592.25 83.8822 L592.25,38.6274" stroke="black" fill="none"/>
</g>
<g id="slice:9:2_4_1:5">
<path d="M245.796,291.051 C259.372 282,259.372 282,268.423 268.423 L291.051,291.051 L268.423,313.678 L223.168,313.678 C236.745 304.627,236.745 304.627,245.796 291.051" stroke="none" fill-opacity="0.75" fill="#FF4040"/>
<path d="M245.796,291.051 C259.372 282,259.372 282,268.423 268.423 L291.051,291.051 L268.423,313.678 L223.168,313.678 C236.745 304.627,236.745 304.627,245.796 291.051" stroke="black" fill="none"/>
</g>
<g id="slice:10:4_4_1:5">
<path d="M291.051,291.051 C304.627 282,304.627 282,313.678 268.423 L313.678,313.678 L291.051,336.305 L268.423,313.678 C282 304.627,282 304.627,291.051 291.051" stroke="none" fill-opacity="0.75" fill="#4DA6FF"/>
<path d="M291.051,291.051 C304.627 282,304.627 282,313.678 268.423 L313.678,313.678 L291.051,336.305 L268.423,313.678 C282 304.627,282 304.627,291.051 291.051" stroke="black" fill="none"/>
</g>
<g id="slice:5:2_2_1:6">
<path d="M407.709,223.168 L452.964,223.168 L430.337,245.796 L452.964,268.423 L407.709,268.423 L407.709,223.168" stroke="none" fill-opacity="0.75" fill="#4DA6FF"/>
<path d="M407.709,223.168 L452.964,223.168 L430.337,245.796 L452.964,268.423 L407.709,268.423 L407.709,223.168" stroke="black" fill="none"/>
</g>
<g id="slice:6:4_2_1:6">
<path d="M452.964,223.168 L498.219,223.168 L475.592,245.796 L498.219,268.423 L452.964,268.423 L452.964,223.168" stroke="none" fill-opacity="0.75" fill="#FF4040"/>
<path d="M452.964,223.168 L498.219,223.168 L475.592,245.796 L498.219,268.423 L452.964,268.423 L452.964,223.168" stroke="black" fill="none"/>
</g>
<g id="slice:9:2_4_1:6">
<path d="M407.709,268.423 L452.964,268.423 L430.337,291.051 L452.964,313.678 L407.709,313.678 L407.709,268.423" stroke="none" fill-opacity="0.75" fill="#FF4040"/>
<path d="M407.709,268.423 L452.964,268.423 L430.337,291.051 L452.964,313.678 L407.709,313.678 L407.709,268.423" stroke="black" fill="none"/>
</g>
<g id="slice:10:4_4_1:6">
<path d="M452.964,268.423 L498.219,268.423 L475.592,291.051 L498.219,313.678 L452.964,313.678 L452.964,268.423" stroke="none" fill-opacity="0.75" fill="#4DA6FF"/>
<path d="M452.964,268.423 L498.219,268.423 L475.592,291.051 L498.219,313.678 L452.964,313.678 L452.964,268.423" stroke="black" fill="none"/>
</g>
<g id="slice:5:2_2_1:7">
<path d="M592.25,223.168 L637.505,223.168 L614.878,245.796 L637.505,268.423 L592.25,268.423 L592.25,223.168" stroke="none" fill-opacity="0.75" fill="#4DA6FF"/>
<path d="M592.25,223.168 L637.505,223.168 L614.878,245.796 L637.505,268.423 L592.25,268.423 L592.25,223.168" stroke="black" fill="none"/>
</g>
<g id="slice:6:4_2_1:7">
<path d="M637.505,223.168 L682.76,223.168 L660.133,245.796 L682.76,268.423 L637.505,268.423 L637.505,223.168" stroke="none" fill-opacity="0.75" fill="#AAAAAA"/>
<clipPath id="clip0"><path d="M637.505,223.168 L682.76,223.168 L660.133,245.796 L682.76,268.423 L637.505,268.423 L637.505,223.168"/></clipPath>
<circle clip-path="url(#clip0)" cx="637.505" cy="223.168" r="20" stroke="none" fill="url('#xgrad')"/>
<circle clip-path="url(#clip0)" cx="682.76" cy="223.168" r="20" stroke="none" fill="url('#xgrad')"/>
<circle clip-path="url(#clip0)" cx="637.505" cy="268.423" r="20" stroke="none" fill="url('#xgrad')"/>
<circle clip-path="url(#clip0)" cx="660.133" cy="245.796" r="20" stroke="none" fill="url('#zgrad')"/>
<circle clip-path="url(#clip0)" cx="682.76" cy="268.423" r="20" stroke="none" fill="url('#xgrad')"/>
<path d="M637.505,223.168 L682.76,223.168 L660.133,245.796 L682.76,268.423 L637.505,268.423 L637.505,223.168" stroke="black" fill="none"/>
</g>
<g id="slice:9:2_4_1:7">
<path d="M592.25,268.423 L637.505,268.423 L614.878,291.051 L637.505,313.678 L592.25,313.678 L592.25,268.423" stroke="none" fill-opacity="0.75" fill="#AAAAAA"/>
<clipPath id="clip1"><path d="M592.25,268.423 L637.505,268.423 L614.878,291.051 L637.505,313.678 L592.25,313.678 L592.25,268.423"/></clipPath>
<circle clip-path="url(#clip1)" cx="592.25" cy="268.423" r="20" stroke="none" fill="url('#xgrad')"/>
<circle clip-path="url(#clip1)" cx="637.505" cy="268.423" r="20" stroke="none" fill="url('#xgrad')"/>
<circle clip-path="url(#clip1)" cx="592.25" cy="313.678" r="20" stroke="none" fill="url('#xgrad')"/>
<circle clip-path="url(#clip1)" cx="614.878" cy="291.051" r="20" stroke="none" fill="url('#zgrad')"/>
<circle clip-path="url(#clip1)" cx="637.505" cy="313.678" r="20" stroke="none" fill="url('#xgrad')"/>
<path d="M592.25,268.423 L637.505,268.423 L614.878,291.051 L637.505,313.678 L592.25,313.678 L592.25,268.423" stroke="black" fill="none"/>
</g>
<g id="slice:10:4_4_1:7">
<path d="M637.505,268.423 L682.76,268.423 L660.133,291.051 L682.76,313.678 L637.505,313.678 L637.505,268.423" stroke="none" fill-opacity="0.75" fill="#4DA6FF"/>
<path d="M637.505,268.423 L682.76,268.423 L660.133,291.051 L682.76,313.678 L637.505,313.678 L637.505,268.423" stroke="black" fill="none"/>
</g>
<g id="slice:5:2_2_1:8">
<path d="M38.6274,407.709 L83.8822,407.709 L61.2548,430.337 L83.8822,452.964 L38.6274,452.964 L38.6274,407.709" stroke="none" fill-opacity="0.75" fill="#4DA6FF"/>
<path d="M38.6274,407.709 L83.8822,407.709 L61.2548,430.337 L83.8822,452.964 L38.6274,452.964 L38.6274,407.709" stroke="black" fill="none"/>
</g>
<g id="slice:6:4_2_1:8">
<path d="M83.8822,407.709 L129.137,407.709 L106.51,430.337 L129.137,452.964 L83.8822,452.964 L83.8822,407.709" stroke="none" fill-opacity="0.75" fill="#AAAAAA"/>
<clipPath id="clip2"><path d="M83.8822,407.709 L129.137,407.709 L106.51,430.337 L129.137,452.964 L83.8822,452.964 L83.8822,407.709"/></clipPath>
<circle clip-path="url(#clip2)" cx="83.8822" cy="407.709" r="20" stroke="none" fill="url('#xgrad')"/>
<circle clip-path="url(#clip2)" cx="129.137" cy="407.709" r="20" stroke="none" fill="url('#xgrad')"/>
<circle clip-path="url(#clip2)" cx="83.8822" cy="452.964" r="20" stroke="none" fill="url('#xgrad')"/>
<circle clip-path="url(#clip2)" cx="106.51" cy="430.337" r="20" stroke="none" fill="url('#zgrad')"/>
<circle clip-path="url(#clip2)" cx="129.137" cy="452.964" r="20" stroke="none" fill="url('#xgrad')"/>
<path d="M83.8822,407.709 L129.137,407.709 L106.51,430.337 L129.137,452.964 L83.8822,452.964 L83.8822,407.709" stroke="black" fill="none"/>
</g>
<g id="slice:9:2_4_1:8">
<path d="M38.6274,452.964 L83.8822,452.964 L61.2548,475.592 L83.8822,498.219 L38.6274,498.219 L38.6274,452.964" stroke="none" fill-opacity="0.75" fill="#AAAAAA"/>
<clipPath id="clip3"><path d="M38.6274,452.964 L83.8822,452.964 L61.2548,475.592 L83.8822,498.219 L38.6274,498.219 L38.6274,452.964"/></clipPath>
<circle clip-path="url(#clip3)" cx="38.6274" cy="452.964" r="20" stroke="none" fill="url('#xgrad')"/>
<circle clip-path="url(#clip3)" cx="83.8822" cy="452.964" r="20" stroke="none" fill="url('#xgrad')"/>
<circle clip-path="url(#clip3)" cx="38.6274" cy="498.219" r="20" stroke="none" fill="url('#xgrad')"/>
<circle clip-path="url(#clip3)" cx="61.2548" cy="475.592" r="20" stroke="none" fill="url('#zgrad')"/>
<circle clip-path="url(#clip3)" cx="83.8822" cy="498.219" r="20" stroke="none" fill="url('#xgrad')"/>
<path d="M38.6274,452.964 L83.8822,452.964 L61.2548,475.592 L83.8822,498.219 L38.6274,498.219 L38.6274,452.964" stroke="black" fill="none"/>
</g>
<g id="slice:10:4_4_1:8">
<path d="M83.8822,452.964 L129.137,452.964 L106.51,475.592 L129.137,498.219 L83.8822,498.219 L83.8822,452.964" stroke="none" fill-opacity="0.75" fill="#4DA6FF"/>
<path d="M83.8822,452.964 L129.137,452.964 L106.51,475.592 L129.137,498.219 L83.8822,498.219 L83.8822,452.964" stroke="black" fill="none"/>
</g>
<g id="slice:5:2_2_1:9">
<path d="M223.168,407.709 L268.423,407.709 L245.796,430.337 L268.423,452.964 L223.168,452.964 L223.168,407.709" stroke="none" fill-opacity="0.75" fill="#4DA6FF"/>
<path d="M223.168,407.709 L268.423,407.709 L245.796,430.337 L268.423,452.964 L223.168,452.964 L223.168,407.709" stroke="black" fill="none"/>
</g>
<g id="slice:6:4_2_1:9">
<path d="M268.423,407.709 L313.678,407.709 L291.051,430.337 L313.678,452.964 L268.423,452.964 L268.423,407.709" stroke="none" fill-opacity="0.75" fill="#FF4040"/>
<path d="M268.423,407.709 L313.678,407.709 L291.051,430.337 L313.678,452.964 L268.423,452.964 L268.423,407.709" stroke="black" fill="none"/>
</g>
<g id="slice:9:2_4_1:9">
<path d="M223.168,452.964 L268.423,452.964 L245.796,475.592 L268.423,498.219 L223.168,498.219 L223.168,452.964" stroke="none" fill-opacity="0.75" fill="#FF4040"/>
<path d="M223.168,452.964 L268.423,452.964 L245.796,475.592 L268.423,498.219 L223.168,498.219 L223.168,452.964" stroke="black" fill="none"/>
</g>
<g id="slice:10:4_4_1:9">
<path d="M268.423,452.964 L313.678,452.964 L291.051,475.592 L313.678,498.219 L268.423,498.219 L268.423,452.964" stroke="none" fill-opacity="0.75" fill="#4DA6FF"/>
<path d="M268.423,452.964 L313.678,452.964 L291.051,475.592 L313.678,498.219 L268.423,498.219 L268.423,452.964" stroke="black" fill="none"/>
</g>
<g id="slice:5:2_2_1:10">
<path d="M407.709,407.709 L430.337,385.082 L452.964,407.709 C439.388 416.76,439.388 416.76,430.337 430.337 C416.76 439.388,416.76 439.388,407.709 452.964 L407.709,407.709" stroke="none" fill-opacity="0.75" fill="#4DA6FF"/>
<path d="M407.709,407.709 L430.337,385.082 L452.964,407.709 C439.388 416.76,439.388 416.76,430.337 430.337 C416.76 439.388,416.76 439.388,407.709 452.964 L407.709,407.709" stroke="black" fill="none"/>
</g>
<g id="slice:6:4_2_1:10">
<path d="M452.964,407.709 L498.219,407.709 C484.643 416.76,484.643 416.76,475.592 430.337 C462.015 439.388,462.015 439.388,452.964 452.964 L430.337,430.337 L452.964,407.709" stroke="none" fill-opacity="0.75" fill="#FF4040"/>
<path d="M452.964,407.709 L498.219,407.709 C484.643 416.76,484.643 416.76,475.592 430.337 C462.015 439.388,462.015 439.388,452.964 452.964 L430.337,430.337 L452.964,407.709" stroke="black" fill="none"/>
</g>
<g id="slice:14:4_4_2:12">
<path d="M106.51,660.133 C120.086 651.082,120.086 651.082,129.137 637.505 L129.137,682.76 L106.51,705.387 L83.8822,682.76 C97.4587 673.709,97.4587 673.709,106.51 660.133" stroke="none" fill-opacity="0.75" fill="#4DA6FF"/>
<path d="M106.51,660.133 C120.086 651.082,120.086 651.082,129.137 637.505 L129.137,682.76 L106.51,705.387 L83.8822,682.76 C97.4587 673.709,97.4587 673.709,106.51 660.133" stroke="black" fill="none"/>
</g>
<g id="slice:13:2_2_2:13">
<path d="M223.168,592.25 L268.423,592.25 L245.796,614.878 L268.423,637.505 L223.168,637.505 L223.168,592.25" stroke="none" fill-opacity="0.75" fill="#4DA6FF"/>
<path d="M223.168,592.25 L268.423,592.25 L245.796,614.878 L268.423,637.505 L223.168,637.505 L223.168,592.25" stroke="black" fill="none"/>
</g>
<g id="slice:14:4_4_2:13">
<path d="M268.423,637.505 L313.678,637.505 L291.051,660.133 L313.678,682.76 L268.423,682.76 L268.423,637.505" stroke="none" fill-opacity="0.75" fill="#4DA6FF"/>
<path d="M268.423,637.505 L313.678,637.505 L291.051,660.133 L313.678,682.76 L268.423,682.76 L268.423,637.505" stroke="black" fill="none"/>
</g>
<g id="slice:13:2_2_2:14">
<path d="M407.709,592.25 L452.964,592.25 L430.337,614.878 L452.964,637.505 L407.709,637.505 L407.709,592.25" stroke="none" fill-opacity="0.75" fill="#4DA6FF"/>
<path d="M407.709,592.25 L452.964,592.25 L430.337,614.878 L452.964,637.505 L407.709,637.505 L407.709,592.25" stroke="black" fill="none"/>
</g>
<g id="slice:14:4_4_2:14">
<path d="M452.964,637.505 L498.219,637.505 L475.592,660.133 L498.219,682.76 L452.964,682.76 L452.964,637.505" stroke="none" fill-opacity="0.75" fill="#4DA6FF"/>
<path d="M452.964,637.505 L498.219,637.505 L475.592,660.133 L498.219,682.76 L452.964,682.76 L452.964,637.505" stroke="black" fill="none"/>
</g>
<g id="slice:3:6_2_0:3">
<path d="M660.133,61.2548 L682.76,38.6274 L705.387,61.2548 L682.76,83.8822 L660.133,61.2548" stroke="none" fill-opacity="0.75" fill="#4DA6FF"/>
<path d="M660.133,61.2548 L682.76,38.6274 L705.387,61.2548 L682.76,83.8822 L660.133,61.2548" stroke="black" fill="none"/>
</g>
<g id="slice:2:4_4_0:4">
<path d="M61.2548,291.051 L83.8822,268.423 L106.51,291.051 L83.8822,313.678 L61.2548,291.051" stroke="none" fill-opacity="0.75" fill="#4DA6FF"/>
<path d="M61.2548,291.051 L83.8822,268.423 L106.51,291.051 L83.8822,313.678 L61.2548,291.051" stroke="black" fill="none"/>
</g>
<g id="slice:3:6_2_0:4">
<path d="M106.51,245.796 L129.137,223.168 L151.764,245.796 L129.137,268.423 L106.51,245.796" stroke="none" fill-opacity="0.75" fill="#4DA6FF"/>
<path d="M106.51,245.796 L129.137,223.168 L151.764,245.796 L129.137,268.423 L106.51,245.796" stroke="black" fill="none"/>
</g>
<g id="slice:4:2_0_1:4">
<path d="M38.6274,223.168 L61.2548,200.541 L83.8822,223.168 L61.2548,245.796 L38.6274,223.168" stroke="none" fill-opacity="0.75" fill="#FF4040"/>
<path d="M38.6274,223.168 L61.2548,200.541 L83.8822,223.168 L61.2548,245.796 L38.6274,223.168" stroke="black" fill="none"/>
</g>
<g id="slice:5:2_2_1:4">
<path d="M61.2548,245.796 L83.8822,223.168 L106.51,245.796 L83.8822,268.423 L61.2548,245.796" stroke="none" fill-opacity="0.75" fill="#4DA6FF"/>
<path d="M61.2548,245.796 L83.8822,223.168 L106.51,245.796 L83.8822,268.423 L61.2548,245.796" stroke="black" fill="none"/>
</g>
<g id="slice:6:4_2_1:4">
<path d="M83.8822,268.423 L106.51,245.796 L129.137,268.423 L106.51,291.051 L83.8822,268.423" stroke="none" fill-opacity="0.75" fill="#FF4040"/>
<path d="M83.8822,268.423 L106.51,245.796 L129.137,268.423 L106.51,291.051 L83.8822,268.423" stroke="black" fill="none"/>
</g>
<g id="slice:8:0_4_1:4">
<path d="M16,291.051 L38.6274,268.423 L61.2548,291.051 L38.6274,313.678 L16,291.051" stroke="none" fill-opacity="0.75" fill="#4DA6FF"/>
<path d="M16,291.051 L38.6274,268.423 L61.2548,291.051 L38.6274,313.678 L16,291.051" stroke="black" fill="none"/>
</g>
<g id="slice:4:2_0_1:5">
<path d="M223.168,223.168 L245.796,200.541 L268.423,223.168 L245.796,245.796 L223.168,223.168" stroke="none" fill-opacity="0.75" fill="#FF4040"/>
<path d="M223.168,223.168 L245.796,200.541 L268.423,223.168 L245.796,245.796 L223.168,223.168" stroke="black" fill="none"/>
</g>
<g id="slice:8:0_4_1:5">
<path d="M200.541,291.051 L223.168,268.423 L245.796,291.051 L223.168,313.678 L200.541,291.051" stroke="none" fill-opacity="0.75" fill="#4DA6FF"/>
<path d="M200.541,291.051 L223.168,268.423 L245.796,291.051 L223.168,313.678 L200.541,291.051" stroke="black" fill="none"/>
</g>
<g id="slice:7:6_2_1:10">
<path d="M475.592,430.337 L498.219,407.709 L520.846,430.337 L498.219,452.964 L475.592,430.337" stroke="none" fill-opacity="0.75" fill="#4DA6FF"/>
<path d="M475.592,430.337 L498.219,407.709 L520.846,430.337 L498.219,452.964 L475.592,430.337" stroke="black" fill="none"/>
</g>
<g id="slice:11:4_6_1:10">
<path d="M452.964,498.219 L475.592,475.592 L498.219,498.219 L475.592,520.846 L452.964,498.219" stroke="none" fill-opacity="0.75" fill="#FF4040"/>
<path d="M452.964,498.219 L475.592,475.592 L498.219,498.219 L475.592,520.846 L452.964,498.219" stroke="black" fill="none"/>
</g>
<g id="slice:7:6_2_1:11">
<path d="M660.133,430.337 L682.76,407.709 L705.387,430.337 L682.76,452.964 L660.133,430.337" stroke="none" fill-opacity="0.75" fill="#4DA6FF"/>
<path d="M660.133,430.337 L682.76,407.709 L705.387,430.337 L682.76,452.964 L660.133,430.337" stroke="black" fill="none"/>
</g>
<g id="slice:9:2_4_1:11">
<path d="M592.25,452.964 L614.878,430.337 L637.505,452.964 L614.878,475.592 L592.25,452.964" stroke="none" fill-opacity="0.75" fill="#FF4040"/>
<path d="M592.25,452.964 L614.878,430.337 L637.505,452.964 L614.878,475.592 L592.25,452.964" stroke="black" fill="none"/>
</g>
<g id="slice:10:4_4_1:11">
<path d="M614.878,475.592 L637.505,452.964 L660.133,475.592 L637.505,498.219 L614.878,475.592" stroke="none" fill-opacity="0.75" fill="#4DA6FF"/>
<path d="M614.878,475.592 L637.505,452.964 L660.133,475.592 L637.505,498.219 L614.878,475.592" stroke="black" fill="none"/>
</g>
<g id="slice:11:4_6_1:11">
<path d="M637.505,498.219 L660.133,475.592 L682.76,498.219 L660.133,520.846 L637.505,498.219" stroke="none" fill-opacity="0.75" fill="#FF4040"/>
<path d="M637.505,498.219 L660.133,475.592 L682.76,498.219 L660.133,520.846 L637.505,498.219" stroke="black" fill="none"/>
</g>
<g id="slice:12:0_4_2:11">
<path d="M569.623,475.592 L592.25,452.964 L614.878,475.592 L592.25,498.219 L569.623,475.592" stroke="none" fill-opacity="0.75" fill="#4DA6FF"/>
<path d="M569.623,475.592 L592.25,452.964 L614.878,475.592 L592.25,498.219 L569.623,475.592" stroke="black" fill="none"/>
</g>
<g id="slice:13:2_2_2:11">
<path d="M614.878,430.337 L637.505,407.709 L660.133,430.337 L637.505,452.964 L614.878,430.337" stroke="none" fill-opacity="0.75" fill="#4DA6FF"/>
<path d="M614.878,430.337 L637.505,407.709 L660.133,430.337 L637.505,452.964 L614.878,430.337" stroke="black" fill="none"/>
</g>
<g id="slice:12:0_4_2:12">
<path d="M16,660.133 L38.6274,637.505 L61.2548,660.133 L38.6274,682.76 L16,660.133" stroke="none" fill-opacity="0.75" fill="#4DA6FF"/>
<path d="M16,660.133 L38.6274,637.505 L61.2548,660.133 L38.6274,682.76 L16,660.133" stroke="black" fill="none"/>
</g>
<g id="slice:0:0_4_0:1">
<path d="M200.541,106.51 L223.168,83.8822 L223.168,129.137 L200.541,106.51" stroke="none" fill-opacity="0.75" fill="#4DA6FF"/>
<path d="M200.541,106.51 L223.168,83.8822 L223.168,129.137 L200.541,106.51" stroke="black" fill="none"/>
</g>
<g id="slice:3:6_2_0:1">
<path d="M313.678,38.6274 L336.305,61.2548 L313.678,83.8822 L313.678,38.6274" stroke="none" fill-opacity="0.75" fill="#4DA6FF"/>
<path d="M313.678,38.6274 L336.305,61.2548 L313.678,83.8822 L313.678,38.6274" stroke="black" fill="none"/>
</g>
<g id="slice:0:0_4_0:2">
<path d="M385.082,106.51 L407.709,83.8822 L407.709,129.137 L385.082,106.51" stroke="none" fill-opacity="0.75" fill="#4DA6FF"/>
<path d="M385.082,106.51 L407.709,83.8822 L407.709,129.137 L385.082,106.51" stroke="black" fill="none"/>
</g>
<g id="slice:3:6_2_0:2">
<path d="M498.219,38.6274 L520.846,61.2548 L498.219,83.8822 L498.219,38.6274" stroke="none" fill-opacity="0.75" fill="#4DA6FF"/>
<path d="M498.219,38.6274 L520.846,61.2548 L498.219,83.8822 L498.219,38.6274" stroke="black" fill="none"/>
</g>
<g id="slice:1:2_2_0:4">
<path d="M38.6274,223.168 L61.2548,245.796 L38.6274,268.423 L38.6274,223.168" stroke="none" fill-opacity="0.75" fill="#4DA6FF"/>
<path d="M38.6274,223.168 L61.2548,245.796 L38.6274,268.423 L38.6274,223.168" stroke="black" fill="none"/>
</g>
<g id="slice:9:2_4_1:4">
<path d="M61.2548,291.051 L83.8822,313.678 L38.6274,313.678 L61.2548,291.051" stroke="none" fill-opacity="0.75" fill="#FF4040"/>
<path d="M61.2548,291.051 L83.8822,313.678 L38.6274,313.678 L61.2548,291.051" stroke="black" fill="none"/>
</g>
<g id="slice:10:4_4_1:4">
<path d="M106.51,291.051 L129.137,268.423 L129.137,313.678 L106.51,291.051" stroke="none" fill-opacity="0.75" fill="#4DA6FF"/>
<path d="M106.51,291.051 L129.137,268.423 L129.137,313.678 L106.51,291.051" stroke="black" fill="none"/>
</g>
<g id="slice:4:2_0_1:6">
<path d="M430.337,200.541 L452.964,223.168 L407.709,223.168 L430.337,200.541" stroke="none" fill-opacity="0.75" fill="#FF4040"/>
<path d="M430.337,200.541 L452.964,223.168 L407.709,223.168 L430.337,200.541" stroke="black" fill="none"/>
</g>
<g id="slice:7:6_2_1:6">
<path d="M498.219,223.168 L520.846,245.796 L498.219,268.423 L498.219,223.168" stroke="none" fill-opacity="0.75" fill="#4DA6FF"/>
<path d="M498.219,223.168 L520.846,245.796 L498.219,268.423 L498.219,223.168" stroke="black" fill="none"/>
</g>
<g id="slice:8:0_4_1:6">
<path d="M385.082,291.051 L407.709,268.423 L407.709,313.678 L385.082,291.051" stroke="none" fill-opacity="0.75" fill="#4DA6FF"/>
<path d="M385.082,291.051 L407.709,268.423 L407.709,313.678 L385.082,291.051" stroke="black" fill="none"/>
</g>
<g id="slice:11:4_6_1:6">
<path d="M452.964,313.678 L498.219,313.678 L475.592,336.305 L452.964,313.678" stroke="none" fill-opacity="0.75" fill="#FF4040"/>
<path d="M452.964,313.678 L498.219,313.678 L475.592,336.305 L452.964,313.678" stroke="black" fill="none"/>
</g>
<g id="slice:4:2_0_1:7">
<path d="M614.878,200.541 L637.505,223.168 L592.25,223.168 L614.878,200.541" stroke="none" fill-opacity="0.75" fill="#AAAAAA"/>
<clipPath id="clip4"><path d="M614.878,200.541 L637.505,223.168 L592.25,223.168 L614.878,200.541"/></clipPath>
<circle clip-path="url(#clip4)" cx="592.25" cy="223.168" r="20" stroke="none" fill="url('#xgrad')"/>
<circle clip-path="url(#clip4)" cx="614.878" cy="200.541" r="20" stroke="none" fill="url('#zgrad')"/>
<circle clip-path="url(#clip4)" cx="637.505" cy="223.168" r="20" stroke="none" fill="url('#xgrad')"/>
<path d="M614.878,200.541 L637.505,223.168 L592.25,223.168 L614.878,200.541" stroke="black" fill="none"/>
</g>
<g id="slice:7:6_2_1:7">
<path d="M682.76,223.168 L705.387,245.796 L682.76,268.423 L682.76,223.168" stroke="none" fill-opacity="0.75" fill="#4DA6FF"/>
<path d="M682.76,223.168 L705.387,245.796 L682.76,268.423 L682.76,223.168" stroke="black" fill="none"/>
</g>
<g id="slice:8:0_4_1:7">
<path d="M569.623,291.051 L592.25,268.423 L592.25,313.678 L569.623,291.051" stroke="none" fill-opacity="0.75" fill="#4DA6FF"/>
<path d="M569.623,291.051 L592.25,268.423 L592.25,313.678 L569.623,291.051" stroke="black" fill="none"/>
</g>
<g id="slice:11:4_6_1:7">
<path d="M637.505,313.678 L682.76,313.678 L660.133,336.305 L637.505,313.678" stroke="none" fill-opacity="0.75" fill="#AAAAAA"/>
<clipPath id="clip5"><path d="M637.505,313.678 L682.76,313.678 L660.133,336.305 L637.505,313.678"/></clipPath>
<circle clip-path="url(#clip5)" cx="637.505" cy="313.678" r="20" stroke="none" fill="url('#xgrad')"/>
<circle clip-path="url(#clip5)" cx="682.76" cy="313.678" r="20" stroke="none" fill="url('#xgrad')"/>
<circle clip-path="url(#clip5)" cx="660.133" cy="336.305" r="20" stroke="none" fill="url('#zgrad')"/>
<path d="M637.505,313.678 L682.76,313.678 L660.133,336.305 L637.505,313.678" stroke="black" fill="none"/>
</g>
<g id="slice:4:2_0_1:8">
<path d="M61.2548,385.082 L83.8822,407.709 L38.6274,407.709 L61.2548,385.082" stroke="none" fill-opacity="0.75" fill="#AAAAAA"/>
<clipPath id="clip6"><path d="M61.2548,385.082 L83.8822,407.709 L38.6274,407.709 L61.2548,385.082"/></clipPath>
<circle clip-path="url(#clip6)" cx="38.6274" cy="407.709" r="20" stroke="none" fill="url('#xgrad')"/>
<circle clip-path="url(#clip6)" cx="61.2548" cy="385.082" r="20" stroke="none" fill="url('#zgrad')"/>
<circle clip-path="url(#clip6)" cx="83.8822" cy="407.709" r="20" stroke="none" fill="url('#xgrad')"/>
<path d="M61.2548,385.082 L83.8822,407.709 L38.6274,407.709 L61.2548,385.082" stroke="black" fill="none"/>
</g>
<g id="slice:7:6_2_1:8">
<path d="M129.137,407.709 L151.764,430.337 L129.137,452.964 L129.137,407.709" stroke="none" fill-opacity="0.75" fill="#4DA6FF"/>
<path d="M129.137,407.709 L151.764,430.337 L129.137,452.964 L129.137,407.709" stroke="black" fill="none"/>
</g>
<g id="slice:8:0_4_1:8">
<path d="M16,475.592 L38.6274,452.964 L38.6274,498.219 L16,475.592" stroke="none" fill-opacity="0.75" fill="#4DA6FF"/>
<path d="M16,475.592 L38.6274,452.964 L38.6274,498.219 L16,475.592" stroke="black" fill="none"/>
</g>
<g id="slice:11:4_6_1:8">
<path d="M83.8822,498.219 L129.137,498.219 L106.51,520.846 L83.8822,498.219" stroke="none" fill-opacity="0.75" fill="#AAAAAA"/>
<clipPath id="clip7"><path d="M83.8822,498.219 L129.137,498.219 L106.51,520.846 L83.8822,498.219"/></clipPath>
<circle clip-path="url(#clip7)" cx="83.8822" cy="498.219" r="20" stroke="none" fill="url('#xgrad')"/>
<circle clip-path="url(#clip7)" cx="129.137" cy="498.219" r="20" stroke="none" fill="url('#xgrad')"/>
<circle clip-path="url(#clip7)" cx="106.51" cy="520.846" r="20" stroke="none" fill="url('#zgrad')"/>
<path d="M83.8822,498.219 L129.137,498.219 L106.51,520.846 L83.8822,498.219" stroke="black" fill="none"/>
</g>
<g id="slice:4:2_0_1:9">
<path d="M245.796,385.082 L268.423,407.709 L223.168,407.709 L245.796,385.082" stroke="none" fill-opacity="0.75" fill="#FF4040"/>
<path d="M245.796,385.082 L268.423,407.709 L223.168,407.709 L245.796,385.082" stroke="black" fill="none"/>
</g>
<g id="slice:7:6_2_1:9">
<path d="M313.678,407.709 L336.305,430.337 L313.678,452.964 L313.678,407.709" stroke="none" fill-opacity="0.75" fill="#4DA6FF"/>
<path d="M313.678,407.709 L336.305,430.337 L313.678,452.964 L313.678,407.709" stroke="black" fill="none"/>
</g>
<g id="slice:8:0_4_1:9">
<path d="M200.541,475.592 L223.168,452.964 L223.168,498.219 L200.541,475.592" stroke="none" fill-opacity="0.75" fill="#4DA6FF"/>
<path d="M200.541,475.592 L223.168,452.964 L223.168,498.219 L200.541,475.592" stroke="black" fill="none"/>
</g>
<g id="slice:11:4_6_1:9">
<path d="M268.423,498.219 L313.678,498.219 L291.051,520.846 L268.423,498.219" stroke="none" fill-opacity="0.75" fill="#FF4040"/>
<path d="M268.423,498.219 L313.678,498.219 L291.051,520.846 L268.423,498.219" stroke="black" fill="none"/>
</g>
<g id="slice:5:2_2_1:11">
<path d="M592.25,407.709 L614.878,430.337 L592.25,452.964 L592.25,407.709" stroke="none" fill-opacity="0.75" fill="#4DA6FF"/>
<path d="M592.25,407.709 L614.878,430.337 L592.25,452.964 L592.25,407.709" stroke="black" fill="none"/>
</g>
<g id="slice:6:4_2_1:11">
<path d="M637.505,407.709 L682.76,407.709 L660.133,430.337 L637.505,407.709" stroke="none" fill-opacity="0.75" fill="#FF4040"/>
<path d="M637.505,407.709 L682.76,407.709 L660.133,430.337 L637.505,407.709" stroke="black" fill="none"/>
</g>
<g id="slice:14:4_4_2:11">
<path d="M660.133,475.592 L682.76,452.964 L682.76,498.219 L660.133,475.592" stroke="none" fill-opacity="0.75" fill="#4DA6FF"/>
<path d="M660.133,475.592 L682.76,452.964 L682.76,498.219 L660.133,475.592" stroke="black" fill="none"/>
</g>
<g id="slice:12:0_4_2:13">
<path d="M200.541,660.133 L223.168,637.505 L223.168,682.76 L200.541,660.133" stroke="none" fill-opacity="0.75" fill="#4DA6FF"/>
<path d="M200.541,660.133 L223.168,637.505 L223.168,682.76 L200.541,660.133" stroke="black" fill="none"/>
</g>
<g id="slice:15:6_2_2:13">
<path d="M313.678,592.25 L336.305,614.878 L313.678,637.505 L313.678,592.25" stroke="none" fill-opacity="0.75" fill="#4DA6FF"/>
<path d="M313.678,592.25 L336.305,614.878 L313.678,637.505 L313.678,592.25" stroke="black" fill="none"/>
</g>
<g id="slice:12:0_4_2:14">
<path d="M385.082,660.133 L407.709,637.505 L407.709,682.76 L385.082,660.133" stroke="none" fill-opacity="0.75" fill="#4DA6FF"/>
<path d="M385.082,660.133 L407.709,637.505 L407.709,682.76 L385.082,660.133" stroke="black" fill="none"/>
</g>
<g id="slice:15:6_2_2:14">
<path d="M498.219,592.25 L520.846,614.878 L498.219,637.505 L498.219,592.25" stroke="none" fill-opacity="0.75" fill="#4DA6FF"/>
<path d="M498.219,592.25 L520.846,614.878 L498.219,637.505 L498.219,592.25" stroke="black" fill="none"/>
</g>
<g id="slice:0:0_4_0:3">
<path d="M592.25,83.8822 C580.936 86.145, 571.886 95.196, 569.623 106.51 C580.937 104.247, 589.987 95.1959, 592.25 83.8822" stroke="none" fill="#4DA6FF"/>
<path d="M592.25,83.8822 C580.936 86.145, 571.886 95.196, 569.623 106.51 C580.937 104.247, 589.987 95.1959, 592.25 83.8822" stroke="black" fill="none"/>
</g>
<g id="slice:4:2_0_1:3">
<path d="M614.878,16 C617.14 27.3137, 626.191 36.3647, 637.505 38.6274 C635.242 27.3137, 626.191 18.2627, 614.878 16" stroke="none" fill="#FF4040"/>
<path d="M614.878,16 C617.14 27.3137, 626.191 36.3647, 637.505 38.6274 C635.242 27.3137, 626.191 18.2627, 614.878 16" stroke="black" fill="none"/>
</g>
<g id="slice:5:2_2_1:3">
<path d="M614.878,61.2548 C617.14 72.5685, 626.191 81.6195, 637.505 83.8822 C635.242 72.5686, 626.191 63.5176, 614.878 61.2548" stroke="none" fill="#4DA6FF"/>
<path d="M614.878,61.2548 C617.14 72.5685, 626.191 81.6195, 637.505 83.8822 C635.242 72.5686, 626.191 63.5176, 614.878 61.2548" stroke="black" fill="none"/>
</g>
<g id="slice:6:4_2_1:3">
<path d="M660.133,61.2548 C662.395 72.5686, 671.446 81.6195, 682.76 83.8822 C680.497 72.5685, 671.446 63.5176, 660.133 61.2548" stroke="none" fill="#FF4040"/>
<path d="M660.133,61.2548 C662.395 72.5686, 671.446 81.6195, 682.76 83.8822 C680.497 72.5685, 671.446 63.5176, 660.133 61.2548" stroke="black" fill="none"/>
</g>
<g id="slice:8:0_4_1:3">
<path d="M569.623,106.51 C571.886 117.823, 580.936 126.874, 592.25 129.137 C589.987 117.823, 580.937 108.772, 569.623 106.51" stroke="none" fill="#4DA6FF"/>
<path d="M569.623,106.51 C571.886 117.823, 580.936 126.874, 592.25 129.137 C589.987 117.823, 580.937 108.772, 569.623 106.51" stroke="black" fill="none"/>
</g>
<g id="slice:9:2_4_1:3">
<path d="M614.878,106.51 C617.14 117.823, 626.191 126.874, 637.505 129.137 C635.242 117.823, 626.191 108.772, 614.878 106.51" stroke="none" fill="#FF4040"/>
<path d="M614.878,106.51 C617.14 117.823, 626.191 126.874, 637.505 129.137 C635.242 117.823, 626.191 108.772, 614.878 106.51" stroke="black" fill="none"/>
</g>
<g id="slice:10:4_4_1:3">
<path d="M660.133,106.51 C662.395 117.823, 671.446 126.874, 682.76 129.137 C680.497 117.823, 671.446 108.772, 660.133 106.51" stroke="none" fill="#4DA6FF"/>
<path d="M660.133,106.51 C662.395 117.823, 671.446 126.874, 682.76 129.137 C680.497 117.823, 671.446 108.772, 660.133 106.51" stroke="black" fill="none"/>
</g>
<g id="slice:1:2_2_0:5">
<path d="M223.168,223.168 C225.431 234.482, 234.482 243.533, 245.796 245.796 C243.533 234.482, 234.482 225.431, 223.168 223.168" stroke="none" fill="#4DA6FF"/>
<path d="M223.168,223.168 C225.431 234.482, 234.482 243.533, 245.796 245.796 C243.533 234.482, 234.482 225.431, 223.168 223.168" stroke="black" fill="none"/>
</g>
<g id="slice:2:4_4_0:5">
<path d="M268.423,268.423 C270.686 279.737, 279.737 288.788, 291.051 291.051 C288.788 279.737, 279.737 270.686, 268.423 268.423" stroke="none" fill="#4DA6FF"/>
<path d="M268.423,268.423 C270.686 279.737, 279.737 288.788, 291.051 291.051 C288.788 279.737, 279.737 270.686, 268.423 268.423" stroke="black" fill="none"/>
</g>
<g id="slice:3:6_2_0:5">
<path d="M313.678,223.168 C315.941 234.482, 324.992 243.533, 336.305 245.796 C334.043 234.482, 324.992 225.431, 313.678 223.168" stroke="none" fill="#4DA6FF"/>
<path d="M313.678,223.168 C315.941 234.482, 324.992 243.533, 336.305 245.796 C334.043 234.482, 324.992 225.431, 313.678 223.168" stroke="black" fill="none"/>
</g>
<g id="slice:7:6_2_1:5">
<path d="M313.678,268.423 C324.992 266.16, 334.043 257.109, 336.305 245.796 C324.992 248.059, 315.941 257.109, 313.678 268.423" stroke="none" fill="#4DA6FF"/>
<path d="M313.678,268.423 C324.992 266.16, 334.043 257.109, 336.305 245.796 C324.992 248.059, 315.941 257.109, 313.678 268.423" stroke="black" fill="none"/>
</g>
<g id="slice:11:4_6_1:5">
<path d="M313.678,313.678 C302.364 315.941, 293.313 324.992, 291.051 336.305 C302.364 334.043, 311.415 324.992, 313.678 313.678" stroke="none" fill="#FF4040"/>
<path d="M313.678,313.678 C302.364 315.941, 293.313 324.992, 291.051 336.305 C302.364 334.043, 311.415 324.992, 313.678 313.678" stroke="black" fill="none"/>
</g>
<g id="slice:4:2_0_1:10">
<path d="M407.709,407.709 C419.023 405.447, 428.074 396.396, 430.337 385.082 C419.023 387.345, 409.972 396.396, 407.709 407.709" stroke="none" fill="#FF4040"/>
<path d="M407.709,407.709 C419.023 405.447, 428.074 396.396, 430.337 385.082 C419.023 387.345, 409.972 396.396, 407.709 407.709" stroke="black" fill="none"/>
</g>
<g id="slice:8:0_4_1:10">
<path d="M407.709,452.964 C396.396 455.227, 387.345 464.278, 385.082 475.592 C396.396 473.329, 405.447 464.278, 407.709 452.964" stroke="none" fill="#4DA6FF"/>
<path d="M407.709,452.964 C396.396 455.227, 387.345 464.278, 385.082 475.592 C396.396 473.329, 405.447 464.278, 407.709 452.964" stroke="black" fill="none"/>
</g>
<g id="slice:12:0_4_2:10">
<path d="M385.082,475.592 C387.345 486.905, 396.396 495.956, 407.709 498.219 C405.447 486.905, 396.396 477.854, 385.082 475.592" stroke="none" fill="#4DA6FF"/>
<path d="M385.082,475.592 C387.345 486.905, 396.396 495.956, 407.709 498.219 C405.447 486.905, 396.396 477.854, 385.082 475.592" stroke="black" fill="none"/>
</g>
<g id="slice:13:2_2_2:10">
<path d="M430.337,430.337 C432.599 441.65, 441.65 450.701, 452.964 452.964 C450.701 441.65, 441.65 432.599, 430.337 430.337" stroke="none" fill="#4DA6FF"/>
<path d="M430.337,430.337 C432.599 441.65, 441.65 450.701, 452.964 452.964 C450.701 441.65, 441.65 432.599, 430.337 430.337" stroke="black" fill="none"/>
</g>
<g id="slice:14:4_4_2:10">
<path d="M475.592,475.592 C477.854 486.905, 486.905 495.956, 498.219 498.219 C495.956 486.905, 486.905 477.854, 475.592 475.592" stroke="none" fill="#4DA6FF"/>
<path d="M475.592,475.592 C477.854 486.905, 486.905 495.956, 498.219 498.219 C495.956 486.905, 486.905 477.854, 475.592 475.592" stroke="black" fill="none"/>
</g>
<g id="slice:5:2_2_1:12">
<path d="M38.6274,592.25 C40.8902 603.564, 49.9411 612.615, 61.2548 614.878 C58.9921 603.564, 49.9411 594.513, 38.6274 592.25" stroke="none" fill="#4DA6FF"/>
<path d="M38.6274,592.25 C40.8902 603.564, 49.9411 612.615, 61.2548 614.878 C58.9921 603.564, 49.9411 594.513, 38.6274 592.25" stroke="black" fill="none"/>
</g>
<g id="slice:6:4_2_1:12">
<path d="M83.8822,592.25 C86.145 603.564, 95.1959 612.615, 106.51 614.878 C104.247 603.564, 95.196 594.513, 83.8822 592.25" stroke="none" fill="#FF4040"/>
<path d="M83.8822,592.25 C86.145 603.564, 95.1959 612.615, 106.51 614.878 C104.247 603.564, 95.196 594.513, 83.8822 592.25" stroke="black" fill="none"/>
</g>
<g id="slice:7:6_2_1:12">
<path d="M129.137,592.25 C131.4 603.564, 140.451 612.615, 151.764 614.878 C149.502 603.564, 140.451 594.513, 129.137 592.25" stroke="none" fill="#4DA6FF"/>
<path d="M129.137,592.25 C131.4 603.564, 140.451 612.615, 151.764 614.878 C149.502 603.564, 140.451 594.513, 129.137 592.25" stroke="black" fill="none"/>
</g>
<g id="slice:9:2_4_1:12">
<path d="M38.6274,637.505 C40.8902 648.819, 49.9411 657.87, 61.2548 660.133 C58.9921 648.819, 49.9411 639.768, 38.6274 637.505" stroke="none" fill="#FF4040"/>
<path d="M38.6274,637.505 C40.8902 648.819, 49.9411 657.87, 61.2548 660.133 C58.9921 648.819, 49.9411 639.768, 38.6274 637.505" stroke="black" fill="none"/>
</g>
<g id="slice:10:4_4_1:12">
<path d="M83.8822,637.505 C86.145 648.819, 95.1959 657.87, 106.51 660.133 C104.247 648.819, 95.196 639.768, 83.8822 637.505" stroke="none" fill="#4DA6FF"/>
<path d="M83.8822,637.505 C86.145 648.819, 95.1959 657.87, 106.51 660.133 C104.247 648.819, 95.196 639.768, 83.8822 637.505" stroke="black" fill="none"/>
</g>
<g id="slice:11:4_6_1:12">
<path d="M83.8822,682.76 C86.145 694.074, 95.196 703.125, 106.51 705.387 C104.247 694.074, 95.1959 685.023, 83.8822 682.76" stroke="none" fill="#FF4040"/>
<path d="M83.8822,682.76 C86.145 694.074, 95.196 703.125, 106.51 705.387 C104.247 694.074, 95.1959 685.023, 83.8822 682.76" stroke="black" fill="none"/>
</g>
<g id="slice:15:6_2_2:12">
<path d="M129.137,637.505 C140.451 635.242, 149.502 626.191, 151.764 614.878 C140.451 617.14, 131.4 626.191, 129.137 637.505" stroke="none" fill="#4DA6FF"/>
<path d="M129.137,637.505 C140.451 635.242, 149.502 626.191, 151.764 614.878 C140.451 617.14, 131.4 626.191, 129.137 637.505" stroke="black" fill="none"/>
</g>
<g id="slice:4:2_0_1:1">
<circle cx="245.796" cy="16" r="6" stroke="none" fill="#4DA6FF"/>
<circle cx="245.796" cy="16" r="6" stroke="black" fill="none"/>
</g>
<g id="slice:5:2_2_1:1">
<circle cx="245.796" cy="61.2548" r="6" stroke="none" fill="#4DA6FF"/>
<circle cx="245.796" cy="61.2548" r="6" stroke="black" fill="none"/>
</g>
<g id="slice:6:4_2_1:1">
<circle cx="291.051" cy="61.2548" r="6" stroke="none" fill="#4DA6FF"/>
<circle cx="291.051" cy="61.2548" r="6" stroke="black" fill="none"/>
</g>
<g id="slice:7:6_2_1:1">
<circle cx="336.305" cy="61.2548" r="6" stroke="none" fill="#4DA6FF"/>
<circle cx="336.305" cy="61.2548" r="6" stroke="black" fill="none"/>
</g>
<g id="slice:8:0_4_1:1">
<circle cx="200.541" cy="106.51" r="6" stroke="none" fill="#4DA6FF"/>
<circle cx="200.541" cy="106.51" r="6" stroke="black" fill="none"/>
</g>
<g id="slice:9:2_4_1:1">
<circle cx="245.796" cy="106.51" r="6" stroke="none" fill="#4DA6FF"/>
<circle cx="245.796" cy="106.51" r="6" stroke="black" fill="none"/>
</g>
<g id="slice:10:4_4_1:1">
<circle cx="291.051" cy="106.51" r="6" stroke="none" fill="#4DA6FF"/>
<circle cx="291.051" cy="106.51" r="6" stroke="black" fill="none"/>
</g>
<g id="slice:11:4_6_1:1">
<circle cx="291.051" cy="151.764" r="6" stroke="none" fill="#4DA6FF"/>
<circle cx="291.051" cy="151.764" r="6" stroke="black" fill="none"/>
</g>
<g id="slice:4:2_0_1:2">
<circle cx="430.337" cy="16" r="6" stroke="none" fill="#FF4040"/>
<circle cx="430.337" cy="16" r="6" stroke="black" fill="none"/>
</g>
<g id="slice:5:2_2_1:2">
<circle cx="430.337" cy="61.2548" r="6" stroke="none" fill="#4DA6FF"/>
<circle cx="430.337" cy="61.2548" r="6" stroke="black" fill="none"/>
</g>
<g id="slice:6:4_2_1:2">
<circle cx="475.592" cy="61.2548" r="6" stroke="none" fill="#FF4040"/>
<circle cx="475.592" cy="61.2548" r="6" stroke="black" fill="none"/>
</g>
<g id="slice:7:6_2_1:2">
<circle cx="520.846" cy="61.2548" r="6" stroke="none" fill="#4DA6FF"/>
<circle cx="520.846" cy="61.2548" r="6" stroke="black" fill="none"/>
</g>
<g id="slice:8:0_4_1:2">
<circle cx="385.082" cy="106.51" r="6" stroke="none" fill="#4DA6FF"/>
<circle cx="385.082" cy="106.51" r="6" stroke="black" fill="none"/>
</g>
<g id="slice:9:2_4_1:2">
<circle cx="430.337" cy="106.51" r="6" stroke="none" fill="#FF4040"/>
<circle cx="430.337" cy="106.51" r="6" stroke="black" fill="none"/>
</g>
<g id="slice:10:4_4_1:2">
<circle cx="475.592" cy="106.51" r="6" stroke="none" fill="#4DA6FF"/>
<circle cx="475.592" cy="106.51" r="6" stroke="black" fill="none"/>
</g>
<g id="slice:11:4_6_1:2">
<circle cx="475.592" cy="151.764" r="6" stroke="none" fill="#FF4040"/>
<circle cx="475.592" cy="151.764" r="6" stroke="black" fill="none"/>
</g>
<g id="slice:7:6_2_1:3">
<circle cx="705.387" cy="61.2548" r="6" stroke="none" fill="#4DA6FF"/>
<circle cx="705.387" cy="61.2548" r="6" stroke="black" fill="none"/>
</g>
<g id="slice:11:4_6_1:3">
<circle cx="660.133" cy="151.764" r="6" stroke="none" fill="#FF4040"/>
<circle cx="660.133" cy="151.764" r="6" stroke="black" fill="none"/>
</g>
<g id="slice:0:0_4_0:4">
<circle cx="16" cy="291.051" r="6" stroke="none" fill="#4DA6FF"/>
<circle cx="16" cy="291.051" r="6" stroke="black" fill="none"/>
</g>
<g id="slice:7:6_2_1:4">
<circle cx="151.764" cy="245.796" r="6" stroke="none" fill="#4DA6FF"/>
<circle cx="151.764" cy="245.796" r="6" stroke="black" fill="none"/>
</g>
<g id="slice:11:4_6_1:4">
<circle cx="106.51" cy="336.305" r="6" stroke="none" fill="#FF4040"/>
<circle cx="106.51" cy="336.305" r="6" stroke="black" fill="none"/>
</g>
<g id="slice:0:0_4_0:5">
<circle cx="200.541" cy="291.051" r="6" stroke="none" fill="#4DA6FF"/>
<circle cx="200.541" cy="291.051" r="6" stroke="black" fill="none"/>
</g>
<g id="slice:0:0_4_0:6">
<circle cx="385.082" cy="291.051" r="6" stroke="none" fill="#4DA6FF"/>
<circle cx="385.082" cy="291.051" r="6" stroke="black" fill="none"/>
</g>
<g id="slice:1:2_2_0:6">
<circle cx="430.337" cy="245.796" r="6" stroke="none" fill="#4DA6FF"/>
<circle cx="430.337" cy="245.796" r="6" stroke="black" fill="none"/>
</g>
<g id="slice:2:4_4_0:6">
<circle cx="475.592" cy="291.051" r="6" stroke="none" fill="#4DA6FF"/>
<circle cx="475.592" cy="291.051" r="6" stroke="black" fill="none"/>
</g>
<g id="slice:3:6_2_0:6">
<circle cx="520.846" cy="245.796" r="6" stroke="none" fill="#4DA6FF"/>
<circle cx="520.846" cy="245.796" r="6" stroke="black" fill="none"/>
</g>
<g id="slice:0:0_4_0:7">
<circle cx="569.623" cy="291.051" r="6" stroke="none" fill="#4DA6FF"/>
<circle cx="569.623" cy="291.051" r="6" stroke="black" fill="none"/>
</g>
<g id="slice:1:2_2_0:7">
<circle cx="614.878" cy="245.796" r="6" stroke="none" fill="#4DA6FF"/>
<circle cx="614.878" cy="245.796" r="6" stroke="black" fill="none"/>
</g>
<g id="slice:2:4_4_0:7">
<circle cx="660.133" cy="291.051" r="6" stroke="none" fill="#4DA6FF"/>
<circle cx="660.133" cy="291.051" r="6" stroke="black" fill="none"/>
</g>
<g id="slice:3:6_2_0:7">
<circle cx="705.387" cy="245.796" r="6" stroke="none" fill="#4DA6FF"/>
<circle cx="705.387" cy="245.796" r="6" stroke="black" fill="none"/>
</g>
<g id="slice:12:0_4_2:8">
<circle cx="16" cy="475.592" r="6" stroke="none" fill="#4DA6FF"/>
<circle cx="16" cy="475.592" r="6" stroke="black" fill="none"/>
</g>
<g id="slice:13:2_2_2:8">
<circle cx="61.2548" cy="430.337" r="6" stroke="none" fill="#4DA6FF"/>
<circle cx="61.2548" cy="430.337" r="6" stroke="black" fill="none"/>
</g>
<g id="slice:14:4_4_2:8">
<circle cx="106.51" cy="475.592" r="6" stroke="none" fill="#4DA6FF"/>
<circle cx="106.51" cy="475.592" r="6" stroke="black" fill="none"/>
</g>
<g id="slice:15:6_2_2:8">
<circle cx="151.764" cy="430.337" r="6" stroke="none" fill="#4DA6FF"/>
<circle cx="151.764" cy="430.337" r="6" stroke="black" fill="none"/>
</g>
<g id="slice:12:0_4_2:9">
<circle cx="200.541" cy="475.592" r="6" stroke="none" fill="#4DA6FF"/>
<circle cx="200.541" cy="475.592" r="6" stroke="black" fill="none"/>
</g>
<g id="slice:13:2_2_2:9">
<circle cx="245.796" cy="430.337" r="6" stroke="none" fill="#4DA6FF"/>
<circle cx="245.796" cy="430.337" r="6" stroke="black" fill="none"/>
</g>
<g id="slice:14:4_4_2:9">
<circle cx="291.051" cy="475.592" r="6" stroke="none" fill="#4DA6FF"/>
<circle cx="291.051" cy="475.592" r="6" stroke="black" fill="none"/>
</g>
<g id="slice:15:6_2_2:9">
<circle cx="336.305" cy="430.337" r="6" stroke="none" fill="#4DA6FF"/>
<circle cx="336.305" cy="430.337" r="6" stroke="black" fill="none"/>
</g>
<g id="slice:15:6_2_2:10">
<circle cx="520.846" cy="430.337" r="6" stroke="none" fill="#4DA6FF"/>
<circle cx="520.846" cy="430.337" r="6" stroke="black" fill="none"/>
</g>
<g id="slice:4:2_0_1:11">
<circle cx="614.878" cy="385.082" r="6" stroke="none" fill="#FF4040"/>
<circle cx="614.878" cy="385.082" r="6" stroke="black" fill="none"/>
</g>
<g id="slice:8:0_4_1:11">
<circle cx="569.623" cy="475.592" r="6" stroke="none" fill="#4DA6FF"/>
<circle cx="569.623" cy="475.592" r="6" stroke="black" fill="none"/>
</g>
<g id="slice:15:6_2_2:11">
<circle cx="705.387" cy="430.337" r="6" stroke="none" fill="#4DA6FF"/>
<circle cx="705.387" cy="430.337" r="6" stroke="black" fill="none"/>
</g>
<g id="slice:4:2_0_1:12">
<circle cx="61.2548" cy="569.623" r="6" stroke="none" fill="#FF4040"/>
<circle cx="61.2548" cy="569.623" r="6" stroke="black" fill="none"/>
</g>
<g id="slice:8:0_4_1:12">
<circle cx="16" cy="660.133" r="6" stroke="none" fill="#4DA6FF"/>
<circle cx="16" cy="660.133" r="6" stroke="black" fill="none"/>
</g>
<g id="slice:4:2_0_1:13">
<circle cx="245.796" cy="569.623" r="6" stroke="none" fill="#FF4040"/>
<circle cx="245.796" cy="569.623" r="6" stroke="black" fill="none"/>
</g>
<g id="slice:5:2_2_1:13">
<circle cx="245.796" cy="614.878" r="6" stroke="none" fill="#4DA6FF"/>
<circle cx="245.796" cy="614.878" r="6" stroke="black" fill="none"/>
</g>
<g id="slice:6:4_2_1:13">
<circle cx="291.051" cy="614.878" r="6" stroke="none" fill="#FF4040"/>
<circle cx="291.051" cy="614.878" r="6" stroke="black" fill="none"/>
</g>
<g id="slice:7:6_2_1:13">
<circle cx="336.305" cy="614.878" r="6" stroke="none" fill="#4DA6FF"/>
<circle cx="336.305" cy="614.878" r="6" stroke="black" fill="none"/>
</g>
<g id="slice:8:0_4_1:13">
<circle cx="200.541" cy="660.133" r="6" stroke="none" fill="#4DA6FF"/>
<circle cx="200.541" cy="660.133" r="6" stroke="black" fill="none"/>
</g>
<g id="slice:9:2_4_1:13">
<circle cx="245.796" cy="660.133" r="6" stroke="none" fill="#FF4040"/>
<circle cx="245.796" cy="660.133" r="6" stroke="black" fill="none"/>
</g>
<g id="slice:10:4_4_1:13">
<circle cx="291.051" cy="660.133" r="6" stroke="none" fill="#4DA6FF"/>
<circle cx="291.051" cy="660.133" r="6" stroke="black" fill="none"/>
</g>
<g id="slice:11:4_6_1:13">
<circle cx="291.051" cy="705.387" r="6" stroke="none" fill="#FF4040"/>
<circle cx="291.051" cy="705.387" r="6" stroke="black" fill="none"/>
</g>
<g id="slice:4:2_0_1:14">
<circle cx="430.337" cy="569.623" r="6" stroke="none" fill="#4DA6FF"/>
<circle cx="430.337" cy="569.623" r="6" stroke="black" fill="none"/>
</g>
<g id="slice:5:2_2_1:14">
<circle cx="430.337" cy="614.878" r="6" stroke="none" fill="#4DA6FF"/>
<circle cx="430.337" cy="614.878" r="6" stroke="black" fill="none"/>
</g>
<g id="slice:6:4_2_1:14">
<circle cx="475.592" cy="614.878" r="6" stroke="none" fill="#4DA6FF"/>
<circle cx="475.592" cy="614.878" r="6" stroke="black" fill="none"/>
</g>
<g id="slice:7:6_2_1:14">
<circle cx="520.846" cy="614.878" r="6" stroke="none" fill="#4DA6FF"/>
<circle cx="520.846" cy="614.878" r="6" stroke="black" fill="none"/>
</g>
<g id="slice:8:0_4_1:14">
<circle cx="385.082" cy="660.133" r="6" stroke="none" fill="#4DA6FF"/>
<circle cx="385.082" cy="660.133" r="6" stroke="black" fill="none"/>
</g>
<g id="slice:9:2_4_1:14">
<circle cx="430.337" cy="660.133" r="6" stroke="none" fill="#4DA6FF"/>
<circle cx="430.337" cy="660.133" r="6" stroke="black" fill="none"/>
</g>
<g id="slice:10:4_4_1:14">
<circle cx="475.592" cy="660.133" r="6" stroke="none" fill="#4DA6FF"/>
<circle cx="475.592" cy="660.133" r="6" stroke="black" fill="none"/>
</g>
<g id="slice:11:4_6_1:14">
<circle cx="475.592" cy="705.387" r="6" stroke="none" fill="#4DA6FF"/>
<circle cx="475.592" cy="705.387" r="6" stroke="black" fill="none"/>
</g>
<defs>
<radialGradient id="xgrad"><stop offset="50%" stop-color="#FF4040" stop-opacity="1"/><stop offset="100%" stop-color="#AAAAAA" stop-opacity="0"/></radialGradient>
<radialGradient id="ygrad"><stop offset="50%" stop-color="#59FF7A" stop-opacity="1"/><stop offset="100%" stop-color="#AAAAAA" stop-opacity="0"/></radialGradient>
<radialGradient id="zgrad"><stop offset="50%" stop-color="#4DA6FF" stop-opacity="1"/><stop offset="100%" stop-color="#AAAAAA" stop-opacity="0"/></radialGradient>
</defs>
<g id="qubit_dots">
<circle id="qubit_dot:1:1_1:0" cx="38.6274" cy="38.6274" r="2" stroke="none" fill="black"/>
<circle id="qubit_dot:2:2_0:0" cx="61.2548" cy="16" r="2" stroke="none" fill="black"/>
<circle id="qubit_dot:3:3_1:0" cx="83.8822" cy="38.6274" r="2" stroke="none" fill="black"/>
<circle id="qubit_dot:5:5_1:0" cx="129.137" cy="38.6274" r="2" stroke="none" fill="black"/>
<circle id="qubit_dot:8:1_3:0" cx="38.6274" cy="83.8822" r="2" stroke="none" fill="black"/>
<circle id="qubit_dot:9:2_2:0" cx="61.2548" cy="61.2548" r="2" stroke="none" fill="black"/>
<circle id="qubit_dot:10:3_3:0" cx="83.8822" cy="83.8822" r="2" stroke="none" fill="black"/>
<circle id="qubit_dot:11:4_2:0" cx="106.51" cy="61.2548" r="2" stroke="none" fill="black"/>
<circle id="qubit_dot:12:5_3:0" cx="129.137" cy="83.8822" r="2" stroke="none" fill="black"/>
<circle id="qubit_dot:13:6_2:0" cx="151.764" cy="61.2548" r="2" stroke="none" fill="black"/>
<circle id="qubit_dot:14:0_4:0" cx="16" cy="106.51" r="2" stroke="none" fill="black"/>
<circle id="qubit_dot:15:1_5:0" cx="38.6274" cy="129.137" r="2" stroke="none" fill="black"/>
<circle id="qubit_dot:16:2_4:0" cx="61.2548" cy="106.51" r="2" stroke="none" fill="black"/>
<circle id="qubit_dot:17:3_5:0" cx="83.8822" cy="129.137" r="2" stroke="none" fill="black"/>
<circle id="qubit_dot:18:4_4:0" cx="106.51" cy="106.51" r="2" stroke="none" fill="black"/>
<circle id="qubit_dot:19:5_5:0" cx="129.137" cy="129.137" r="2" stroke="none" fill="black"/>
<circle id="qubit_dot:25:4_6:0" cx="106.51" cy="151.764" r="2" stroke="none" fill="black"/>
<circle id="qubit_dot:1:1_1:1" cx="223.168" cy="38.6274" r="2" stroke="none" fill="black"/>
<circle id="qubit_dot:2:2_0:1" cx="245.796" cy="16" r="2" stroke="none" fill="black"/>
<circle id="qubit_dot:3:3_1:1" cx="268.423" cy="38.6274" r="2" stroke="none" fill="black"/>
<circle id="qubit_dot:5:5_1:1" cx="313.678" cy="38.6274" r="2" stroke="none" fill="black"/>
<circle id="qubit_dot:8:1_3:1" cx="223.168" cy="83.8822" r="2" stroke="none" fill="black"/>
<circle id="qubit_dot:9:2_2:1" cx="245.796" cy="61.2548" r="2" stroke="none" fill="black"/>
<circle id="qubit_dot:10:3_3:1" cx="268.423" cy="83.8822" r="2" stroke="none" fill="black"/>
<circle id="qubit_dot:11:4_2:1" cx="291.051" cy="61.2548" r="2" stroke="none" fill="black"/>
<circle id="qubit_dot:12:5_3:1" cx="313.678" cy="83.8822" r="2" stroke="none" fill="black"/>
<circle id="qubit_dot:13:6_2:1" cx="336.305" cy="61.2548" r="2" stroke="none" fill="black"/>
<circle id="qubit_dot:14:0_4:1" cx="200.541" cy="106.51" r="2" stroke="none" fill="black"/>
<circle id="qubit_dot:15:1_5:1" cx="223.168" cy="129.137" r="2" stroke="none" fill="black"/>
<circle id="qubit_dot:16:2_4:1" cx="245.796" cy="106.51" r="2" stroke="none" fill="black"/>
<circle id="qubit_dot:17:3_5:1" cx="268.423" cy="129.137" r="2" stroke="none" fill="black"/>
<circle id="qubit_dot:18:4_4:1" cx="291.051" cy="106.51" r="2" stroke="none" fill="black"/>
<circle id="qubit_dot:19:5_5:1" cx="313.678" cy="129.137" r="2" stroke="none" fill="black"/>
<circle id="qubit_dot:25:4_6:1" cx="291.051" cy="151.764" r="2" stroke="none" fill="black"/>
<circle id="qubit_dot:1:1_1:2" cx="407.709" cy="38.6274" r="2" stroke="none" fill="black"/>
<circle id="qubit_dot:2:2_0:2" cx="430.337" cy="16" r="2" stroke="none" fill="black"/>
<circle id="qubit_dot:3:3_1:2" cx="452.964" cy="38.6274" r="2" stroke="none" fill="black"/>
<circle id="qubit_dot:5:5_1:2" cx="498.219" cy="38.6274" r="2" stroke="none" fill="black"/>
<circle id="qubit_dot:8:1_3:2" cx="407.709" cy="83.8822" r="2" stroke="none" fill="black"/>
<circle id="qubit_dot:9:2_2:2" cx="430.337" cy="61.2548" r="2" stroke="none" fill="black"/>
<circle id="qubit_dot:10:3_3:2" cx="452.964" cy="83.8822" r="2" stroke="none" fill="black"/>
<circle id="qubit_dot:11:4_2:2" cx="475.592" cy="61.2548" r="2" stroke="none" fill="black"/>
<circle id="qubit_dot:12:5_3:2" cx="498.219" cy="83.8822" r="2" stroke="none" fill="black"/>
<circle id="qubit_dot:13:6_2:2" cx="520.846" cy="61.2548" r="2" stroke="none" fill="black"/>
<circle id="qubit_dot:14:0_4:2" cx="385.082" cy="106.51" r="2" stroke="none" fill="black"/>
<circle id="qubit_dot:15:1_5:2" cx="407.709" cy="129.137" r="2" stroke="none" fill="black"/>
<circle id="qubit_dot:16:2_4:2" cx="430.337" cy="106.51" r="2" stroke="none" fill="black"/>
<circle id="qubit_dot:17:3_5:2" cx="452.964" cy="129.137" r="2" stroke="none" fill="black"/>
<circle id="qubit_dot:18:4_4:2" cx="475.592" cy="106.51" r="2" stroke="none" fill="black"/>
<circle id="qubit_dot:19:5_5:2" cx="498.219" cy="129.137" r="2" stroke="none" fill="black"/>
<circle id="qubit_dot:25:4_6:2" cx="475.592" cy="151.764" r="2" stroke="none" fill="black"/>
<circle id="qubit_dot:1:1_1:3" cx="592.25" cy="38.6274" r="2" stroke="none" fill="black"/>
<circle id="qubit_dot:2:2_0:3" cx="614.878" cy="16" r="2" stroke="none" fill="black"/>
<circle id="qubit_dot:3:3_1:3" cx="637.505" cy="38.6274" r="2" stroke="none" fill="black"/>
<circle id="qubit_dot:5:5_1:3" cx="682.76" cy="38.6274" r="2" stroke="none" fill="black"/>
<circle id="qubit_dot:8:1_3:3" cx="592.25" cy="83.8822" r="2" stroke="none" fill="black"/>
<circle id="qubit_dot:9:2_2:3" cx="614.878" cy="61.2548" r="2" stroke="none" fill="black"/>
<circle id="qubit_dot:10:3_3:3" cx="637.505" cy="83.8822" r="2" stroke="none" fill="black"/>
<circle id="qubit_dot:11:4_2:3" cx="660.133" cy="61.2548" r="2" stroke="none" fill="black"/>
<circle id="qubit_dot:12:5_3:3" cx="682.76" cy="83.8822" r="2" stroke="none" fill="black"/>
<circle id="qubit_dot:13:6_2:3" cx="705.387" cy="61.2548" r="2" stroke="none" fill="black"/>
<circle id="qubit_dot:14:0_4:3" cx="569.623" cy="106.51" r="2" stroke="none" fill="black"/>
<circle id="qubit_dot:15:1_5:3" cx="592.25" cy="129.137" r="2" stroke="none" fill="black"/>
<circle id="qubit_dot:16:2_4:3" cx="614.878" cy="106.51" r="2" stroke="none" fill="black"/>
<circle id="qubit_dot:17:3_5:3" cx="637.505" cy="129.137" r="2" stroke="none" fill="black"/>
<circle id="qubit_dot:18:4_4:3" cx="660.133" cy="106.51" r="2" stroke="none" fill="black"/>
<circle id="qubit_dot:19:5_5:3" cx="682.76" cy="129.137" r="2" stroke="none" fill="black"/>
<circle id="qubit_dot:25:4_6:3" cx="660.133" cy="151.764" r="2" stroke="none" fill="black"/>
<circle id="qubit_dot:1:1_1:4" cx="38.6274" cy="223.168" r="2" stroke="none" fill="black"/>
<circle id="qubit_dot:2:2_0:4" cx="61.2548" cy="200.541" r="2" stroke="none" fill="black"/>
<circle id="qubit_dot:3:3_1:4" cx="83.8822" cy="223.168" r="2" stroke="none" fill="black"/>
<circle id="qubit_dot:5:5_1:4" cx="129.137" cy="223.168" r="2" stroke="none" fill="black"/>
<circle id="qubit_dot:8:1_3:4" cx="38.6274" cy="268.423" r="2" stroke="none" fill="black"/>
<circle id="qubit_dot:9:2_2:4" cx="61.2548" cy="245.796" r="2" stroke="none" fill="black"/>
<circle id="qubit_dot:10:3_3:4" cx="83.8822" cy="268.423" r="2" stroke="none" fill="black"/>
<circle id="qubit_dot:11:4_2:4" cx="106.51" cy="245.796" r="2" stroke="none" fill="black"/>
<circle id="qubit_dot:12:5_3:4" cx="129.137" cy="268.423" r="2" stroke="none" fill="black"/>
<circle id="qubit_dot:13:6_2:4" cx="151.764" cy="245.796" r="2" stroke="none" fill="black"/>
<circle id="qubit_dot:14:0_4:4" cx="16" cy="291.051" r="2" stroke="none" fill="black"/>
<circle id="qubit_dot:15:1_5:4" cx="38.6274" cy="313.678" r="2" stroke="none" fill="black"/>
<circle id="qubit_dot:16:2_4:4" cx="61.2548" cy="291.051" r="2" stroke="none" fill="black"/>
<circle id="qubit_dot:17:3_5:4" cx="83.8822" cy="313.678" r="2" stroke="none" fill="black"/>
<circle id="qubit_dot:18:4_4:4" cx="106.51" cy="291.051" r="2" stroke="none" fill="black"/>
<circle id="qubit_dot:19:5_5:4" cx="129.137" cy="313.678" r="2" stroke="none" fill="black"/>
<circle id="qubit_dot:25:4_6:4" cx="106.51" cy="336.305" r="2" stroke="none" fill="black"/>
<circle id="qubit_dot:1:1_1:5" cx="223.168" cy="223.168" r="2" stroke="none" fill="black"/>
<circle id="qubit_dot:2:2_0:5" cx="245.796" cy="200.541" r="2" stroke="none" fill="black"/>
<circle id="qubit_dot:3:3_1:5" cx="268.423" cy="223.168" r="2" stroke="none" fill="black"/>
<circle id="qubit_dot:5:5_1:5" cx="313.678" cy="223.168" r="2" stroke="none" fill="black"/>
<circle id="qubit_dot:8:1_3:5" cx="223.168" cy="268.423" r="2" stroke="none" fill="black"/>
<circle id="qubit_dot:9:2_2:5" cx="245.796" cy="245.796" r="2" stroke="none" fill="black"/>
<circle id="qubit_dot:10:3_3:5" cx="268.423" cy="268.423" r="2" stroke="none" fill="black"/>
<circle id="qubit_dot:11:4_2:5" cx="291.051" cy="245.796" r="2" stroke="none" fill="black"/>
<circle id="qubit_dot:12:5_3:5" cx="313.678" cy="268.423" r="2" stroke="none" fill="black"/>
<circle id="qubit_dot:13:6_2:5" cx="336.305" cy="245.796" r="2" stroke="none" fill="black"/>
<circle id="qubit_dot:14:0_4:5" cx="200.541" cy="291.051" r="2" stroke="none" fill="black"/>
<circle id="qubit_dot:15:1_5:5" cx="223.168" cy="313.678" r="2" stroke="none" fill="black"/>
<circle id="qubit_dot:16:2_4:5" cx="245.796" cy="291.051" r="2" stroke="none" fill="black"/>
<circle id="qubit_dot:17:3_5:5" cx="268.423" cy="313.678" r="2" stroke="none" fill="black"/>
<circle id="qubit_dot:18:4_4:5" cx="291.051" cy="291.051" r="2" stroke="none" fill="black"/>
<circle id="qubit_dot:19:5_5:5" cx="313.678" cy="313.678" r="2" stroke="none" fill="black"/>
<circle id="qubit_dot:25:4_6:5" cx="291.051" cy="336.305" r="2" stroke="none" fill="black"/>
<circle id="qubit_dot:1:1_1:6" cx="407.709" cy="223.168" r="2" stroke="none" fill="black"/>
<circle id="qubit_dot:2:2_0:6" cx="430.337" cy="200.541" r="2" stroke="none" fill="black"/>
<circle id="qubit_dot:3:3_1:6" cx="452.964" cy="223.168" r="2" stroke="none" fill="black"/>
<circle id="qubit_dot:5:5_1:6" cx="498.219" cy="223.168" r="2" stroke="none" fill="black"/>
<circle id="qubit_dot:8:1_3:6" cx="407.709" cy="268.423" r="2" stroke="none" fill="black"/>
<circle id="qubit_dot:9:2_2:6" cx="430.337" cy="245.796" r="2" stroke="none" fill="black"/>
<circle id="qubit_dot:10:3_3:6" cx="452.964" cy="268.423" r="2" stroke="none" fill="black"/>
<circle id="qubit_dot:11:4_2:6" cx="475.592" cy="245.796" r="2" stroke="none" fill="black"/>
<circle id="qubit_dot:12:5_3:6" cx="498.219" cy="268.423" r="2" stroke="none" fill="black"/>
<circle id="qubit_dot:13:6_2:6" cx="520.846" cy="245.796" r="2" stroke="none" fill="black"/>
<circle id="qubit_dot:14:0_4:6" cx="385.082" cy="291.051" r="2" stroke="none" fill="black"/>
<circle id="qubit_dot:15:1_5:6" cx="407.709" cy="313.678" r="2" stroke="none" fill="black"/>
<circle id="qubit_dot:16:2_4:6" cx="430.337" cy="291.051" r="2" stroke="none" fill="black"/>
<circle id="qubit_dot:17:3_5:6" cx="452.964" cy="313.678" r="2" stroke="none" fill="black"/>
<circle id="qubit_dot:18:4_4:6" cx="475.592" cy="291.051" r="2" stroke="none" fill="black"/>
<circle id="qubit_dot:19:5_5:6" cx="498.219" cy="313.678" r="2" stroke="none" fill="black"/>
<circle id="qubit_dot:25:4_6:6" cx="475.592" cy="336.305" r="2" stroke="none" fill="black"/>
<circle id="qubit_dot:1:1_1:7" cx="592.25" cy="223.168" r="2" stroke="none" fill="black"/>
<circle id="qubit_dot:2:2_0:7" cx="614.878" cy="200.541" r="2" stroke="none" fill="black"/>
<circle id="qubit_dot:3:3_1:7" cx="637.505" cy="223.168" r="2" stroke="none" fill="black"/>
<circle id="qubit_dot:5:5_1:7" cx="682.76" cy="223.168" r="2" stroke="none" fill="black"/>
<circle id="qubit_dot:8:1_3:7" cx="592.25" cy="268.423" r="2" stroke="none" fill="black"/>
<circle id="qubit_dot:9:2_2:7" cx="614.878" cy="245.796" r="2" stroke="none" fill="black"/>
<circle id="qubit_dot:10:3_3:7" cx="637.505" cy="268.423" r="2" stroke="none" fill="black"/>
<circle id="qubit_dot:11:4_2:7" cx="660.133" cy="245.796" r="2" stroke="none" fill="black"/>
<circle id="qubit_dot:12:5_3:7" cx="682.76" cy="268.423" r="2" stroke="none" fill="black"/>
<circle id="qubit_dot:13:6_2:7" cx="705.387" cy="245.796" r="2" stroke="none" fill="black"/>
<circle id="qubit_dot:14:0_4:7" cx="569.623" cy="291.051" r="2" stroke="none" fill="black"/>
<circle id="qubit_dot:15:1_5:7" cx="592.25" cy="313.678" r="2" stroke="none" fill="black"/>
<circle id="qubit_dot:16:2_4:7" cx="614.878" cy="291.051" r="2" stroke="none" fill="black"/>
<circle id="qubit_dot:17:3_5:7" cx="637.505" cy="313.678" r="2" stroke="none" fill="black"/>
<circle id="qubit_dot:18:4_4:7" cx="660.133" cy="291.051" r="2" stroke="none" fill="black"/>
<circle id="qubit_dot:19:5_5:7" cx="682.76" cy="313.678" r="2" stroke="none" fill="black"/>
<circle id="qubit_dot:25:4_6:7" cx="660.133" cy="336.305" r="2" stroke="none" fill="black"/>
<circle id="qubit_dot:1:1_1:8" cx="38.6274" cy="407.709" r="2" stroke="none" fill="black"/>
<circle id="qubit_dot:2:2_0:8" cx="61.2548" cy="385.082" r="2" stroke="none" fill="black"/>
<circle id="qubit_dot:3:3_1:8" cx="83.8822" cy="407.709" r="2" stroke="none" fill="black"/>
<circle id="qubit_dot:5:5_1:8" cx="129.137" cy="407.709" r="2" stroke="none" fill="black"/>
<circle id="qubit_dot:8:1_3:8" cx="38.6274" cy="452.964" r="2" stroke="none" fill="black"/>
<circle id="qubit_dot:9:2_2:8" cx="61.2548" cy="430.337" r="2" stroke="none" fill="black"/>
<circle id="qubit_dot:10:3_3:8" cx="83.8822" cy="452.964" r="2" stroke="none" fill="black"/>
<circle id="qubit_dot:11:4_2:8" cx="106.51" cy="430.337" r="2" stroke="none" fill="black"/>
<circle id="qubit_dot:12:5_3:8" cx="129.137" cy="452.964" r="2" stroke="none" fill="black"/>
<circle id="qubit_dot:13:6_2:8" cx="151.764" cy="430.337" r="2" stroke="none" fill="black"/>
<circle id="qubit_dot:14:0_4:8" cx="16" cy="475.592" r="2" stroke="none" fill="black"/>
<circle id="qubit_dot:15:1_5:8" cx="38.6274" cy="498.219" r="2" stroke="none" fill="black"/>
<circle id="qubit_dot:16:2_4:8" cx="61.2548" cy="475.592" r="2" stroke="none" fill="black"/>
<circle id="qubit_dot:17:3_5:8" cx="83.8822" cy="498.219" r="2" stroke="none" fill="black"/>
<circle id="qubit_dot:18:4_4:8" cx="106.51" cy="475.592" r="2" stroke="none" fill="black"/>
<circle id="qubit_dot:19:5_5:8" cx="129.137" cy="498.219" r="2" stroke="none" fill="black"/>
<circle id="qubit_dot:25:4_6:8" cx="106.51" cy="520.846" r="2" stroke="none" fill="black"/>
<circle id="qubit_dot:1:1_1:9" cx="223.168" cy="407.709" r="2" stroke="none" fill="black"/>
<circle id="qubit_dot:2:2_0:9" cx="245.796" cy="385.082" r="2" stroke="none" fill="black"/>
<circle id="qubit_dot:3:3_1:9" cx="268.423" cy="407.709" r="2" stroke="none" fill="black"/>
<circle id="qubit_dot:5:5_1:9" cx="313.678" cy="407.709" r="2" stroke="none" fill="black"/>
<circle id="qubit_dot:8:1_3:9" cx="223.168" cy="452.964" r="2" stroke="none" fill="black"/>
<circle id="qubit_dot:9:2_2:9" cx="245.796" cy="430.337" r="2" stroke="none" fill="black"/>
<circle id="qubit_dot:10:3_3:9" cx="268.423" cy="452.964" r="2" stroke="none" fill="black"/>
<circle id="qubit_dot:11:4_2:9" cx="291.051" cy="430.337" r="2" stroke="none" fill="black"/>
<circle id="qubit_dot:12:5_3:9" cx="313.678" cy="452.964" r="2" stroke="none" fill="black"/>
<circle id="qubit_dot:13:6_2:9" cx="336.305" cy="430.337" r="2" stroke="none" fill="black"/>
<circle id="qubit_dot:14:0_4:9" cx="200.541" cy="475.592" r="2" stroke="none" fill="black"/>
<circle id="qubit_dot:15:1_5:9" cx="223.168" cy="498.219" r="2" stroke="none" fill="black"/>
<circle id="qubit_dot:16:2_4:9" cx="245.796" cy="475.592" r="2" stroke="none" fill="black"/>
<circle id="qubit_dot:17:3_5:9" cx="268.423" cy="498.219" r="2" stroke="none" fill="black"/>
<circle id="qubit_dot:18:4_4:9" cx="291.051" cy="475.592" r="2" stroke="none" fill="black"/>
<circle id="qubit_dot:19:5_5:9" cx="313.678" cy="498.219" r="2" stroke="none" fill="black"/>
<circle id="qubit_dot:25:4_6:9" cx="291.051" cy="520.846" r="2" stroke="none" fill="black"/>
<circle id="qubit_dot:1:1_1:10" cx="407.709" cy="407.709" r="2" stroke="none" fill="black"/>
<circle id="qubit_dot:2:2_0:10" cx="430.337" cy="385.082" r="2" stroke="none" fill="black"/>
<circle id="qubit_dot:3:3_1:10" cx="452.964" cy="407.709" r="2" stroke="none" fill="black"/>
<circle id="qubit_dot:5:5_1:10" cx="498.219" cy="407.709" r="2" stroke="none" fill="black"/>
<circle id="qubit_dot:8:1_3:10" cx="407.709" cy="452.964" r="2" stroke="none" fill="black"/>
<circle id="qubit_dot:9:2_2:10" cx="430.337" cy="430.337" r="2" stroke="none" fill="black"/>
<circle id="qubit_dot:10:3_3:10" cx="452.964" cy="452.964" r="2" stroke="none" fill="black"/>
<circle id="qubit_dot:11:4_2:10" cx="475.592" cy="430.337" r="2" stroke="none" fill="black"/>
<circle id="qubit_dot:12:5_3:10" cx="498.219" cy="452.964" r="2" stroke="none" fill="black"/>
<circle id="qubit_dot:13:6_2:10" cx="520.846" cy="430.337" r="2" stroke="none" fill="black"/>
<circle id="qubit_dot:14:0_4:10" cx="385.082" cy="475.592" r="2" stroke="none" fill="black"/>
<circle id="qubit_dot:15:1_5:10" cx="407.709" cy="498.219" r="2" stroke="none" fill="black"/>
<circle id="qubit_dot:16:2_4:10" cx="430.337" cy="475.592" r="2" stroke="none" fill="black"/>
<circle id="qubit_dot:17:3_5:10" cx="452.964" cy="498.219" r="2" stroke="none" fill="black"/>
<circle id="qubit_dot:18:4_4:10" cx="475.592" cy="475.592" r="2" stroke="none" fill="black"/>
<circle id="qubit_dot:19:5_5:10" cx="498.219" cy="498.219" r="2" stroke="none" fill="black"/>
<circle id="qubit_dot:25:4_6:10" cx="475.592" cy="520.846" r="2" stroke="none" fill="black"/>
<circle id="qubit_dot:1:1_1:11" cx="592.25" cy="407.709" r="2" stroke="none" fill="black"/>
<circle id="qubit_dot:2:2_0:11" cx="614.878" cy="385.082" r="2" stroke="none" fill="black"/>
<circle id="qubit_dot:3:3_1:11" cx="637.505" cy="407.709" r="2" stroke="none" fill="black"/>
<circle id="qubit_dot:5:5_1:11" cx="682.76" cy="407.709" r="2" stroke="none" fill="black"/>
<circle id="qubit_dot:8:1_3:11" cx="592.25" cy="452.964" r="2" stroke="none" fill="black"/>
<circle id="qubit_dot:9:2_2:11" cx="614.878" cy="430.337" r="2" stroke="none" fill="black"/>
<circle id="qubit_dot:10:3_3:11" cx="637.505" cy="452.964" r="2" stroke="none" fill="black"/>
<circle id="qubit_dot:11:4_2:11" cx="660.133" cy="430.337" r="2" stroke="none" fill="black"/>
<circle id="qubit_dot:12:5_3:11" cx="682.76" cy="452.964" r="2" stroke="none" fill="black"/>
<circle id="qubit_dot:13:6_2:11" cx="705.387" cy="430.337" r="2" stroke="none" fill="black"/>
<circle id="qubit_dot:14:0_4:11" cx="569.623" cy="475.592" r="2" stroke="none" fill="black"/>
<circle id="qubit_dot:15:1_5:11" cx="592.25" cy="498.219" r="2" stroke="none" fill="black"/>
<circle id="qubit_dot:16:2_4:11" cx="614.878" cy="475.592" r="2" stroke="none" fill="black"/>
<circle id="qubit_dot:17:3_5:11" cx="637.505" cy="498.219" r="2" stroke="none" fill="black"/>
<circle id="qubit_dot:18:4_4:11" cx="660.133" cy="475.592" r="2" stroke="none" fill="black"/>
<circle id="qubit_dot:19:5_5:11" cx="682.76" cy="498.219" r="2" stroke="none" fill="black"/>
<circle id="qubit_dot:25:4_6:11" cx="660.133" cy="520.846" r="2" stroke="none" fill="black"/>
<circle id="qubit_dot:1:1_1:12" cx="38.6274" cy="592.25" r="2" stroke="none" fill="black"/>
<circle id="qubit_dot:2:2_0:12" cx="61.2548" cy="569.623" r="2" stroke="none" fill="black"/>
<circle id="qubit_dot:3:3_1:12" cx="83.8822" cy="592.25" r="2" stroke="none" fill="black"/>
<circle id="qubit_dot:5:5_1:12" cx="129.137" cy="592.25" r="2" stroke="none" fill="black"/>
<circle id="qubit_dot:8:1_3:12" cx="38.6274" cy="637.505" r="2" stroke="none" fill="black"/>
<circle id="qubit_dot:9:2_2:12" cx="61.2548" cy="614.878" r="2" stroke="none" fill="black"/>
<circle id="qubit_dot:10:3_3:12" cx="83.8822" cy="637.505" r="2" stroke="none" fill="black"/>
<circle id="qubit_dot:11:4_2:12" cx="106.51" cy="614.878" r="2" stroke="none" fill="black"/>
<circle id="qubit_dot:12:5_3:12" cx="129.137" cy="637.505" r="2" stroke="none" fill="black"/>
<circle id="qubit_dot:13:6_2:12" cx="151.764" cy="614.878" r="2" stroke="none" fill="black"/>
<circle id="qubit_dot:14:0_4:12" cx="16" cy="660.133" r="2" stroke="none" fill="black"/>
<circle id="qubit_dot:15:1_5:12" cx="38.6274" cy="682.76" r="2" stroke="none" fill="black"/>
<circle id="qubit_dot:16:2_4:12" cx="61.2548" cy="660.133" r="2" stroke="none" fill="black"/>
<circle id="qubit_dot:17:3_5:12" cx="83.8822" cy="682.76" r="2" stroke="none" fill="black"/>
<circle id="qubit_dot:18:4_4:12" cx="106.51" cy="660.133" r="2" stroke="none" fill="black"/>
<circle id="qubit_dot:19:5_5:12" cx="129.137" cy="682.76" r="2" stroke="none" fill="black"/>
<circle id="qubit_dot:25:4_6:12" cx="106.51" cy="705.387" r="2" stroke="none" fill="black"/>
<circle id="qubit_dot:1:1_1:13" cx="223.168" cy="592.25" r="2" stroke="none" fill="black"/>
<circle id="qubit_dot:2:2_0:13" cx="245.796" cy="569.623" r="2" stroke="none" fill="black"/>
<circle id="qubit_dot:3:3_1:13" cx="268.423" cy="592.25" r="2" stroke="none" fill="black"/>
<circle id="qubit_dot:5:5_1:13" cx="313.678" cy="592.25" r="2" stroke="none" fill="black"/>
<circle id="qubit_dot:8:1_3:13" cx="223.168" cy="637.505" r="2" stroke="none" fill="black"/>
<circle id="qubit_dot:9:2_2:13" cx="245.796" cy="614.878" r="2" stroke="none" fill="black"/>
<circle id="qubit_dot:10:3_3:13" cx="268.423" cy="637.505" r="2" stroke="none" fill="black"/>
<circle id="qubit_dot:11:4_2:13" cx="291.051" cy="614.878" r="2" stroke="none" fill="black"/>
<circle id="qubit_dot:12:5_3:13" cx="313.678" cy="637.505" r="2" stroke="none" fill="black"/>
<circle id="qubit_dot:13:6_2:13" cx="336.305" cy="614.878" r="2" stroke="none" fill="black"/>
<circle id="qubit_dot:14:0_4:13" cx="200.541" cy="660.133" r="2" stroke="none" fill="black"/>
<circle id="qubit_dot:15:1_5:13" cx="223.168" cy="682.76" r="2" stroke="none" fill="black"/>
<circle id="qubit_dot:16:2_4:13" cx="245.796" cy="660.133" r="2" stroke="none" fill="black"/>
<circle id="qubit_dot:17:3_5:13" cx="268.423" cy="682.76" r="2" stroke="none" fill="black"/>
<circle id="qubit_dot:18:4_4:13" cx="291.051" cy="660.133" r="2" stroke="none" fill="black"/>
<circle id="qubit_dot:19:5_5:13" cx="313.678" cy="682.76" r="2" stroke="none" fill="black"/>
<circle id="qubit_dot:25:4_6:13" cx="291.051" cy="705.387" r="2" stroke="none" fill="black"/>
<circle id="qubit_dot:1:1_1:14" cx="407.709" cy="592.25" r="2" stroke="none" fill="black"/>
<circle id="qubit_dot:2:2_0:14" cx="430.337" cy="569.623" r="2" stroke="none" fill="black"/>
<circle id="qubit_dot:3:3_1:14" cx="452.964" cy="592.25" r="2" stroke="none" fill="black"/>
<circle id="qubit_dot:5:5_1:14" cx="498.219" cy="592.25" r="2" stroke="none" fill="black"/>
<circle id="qubit_dot:8:1_3:14" cx="407.709" cy="637.505" r="2" stroke="none" fill="black"/>
<circle id="qubit_dot:9:2_2:14" cx="430.337" cy="614.878" r="2" stroke="none" fill="black"/>
<circle id="qubit_dot:10:3_3:14" cx="452.964" cy="637.505" r="2" stroke="none" fill="black"/>
<circle id="qubit_dot:11:4_2:14" cx="475.592" cy="614.878" r="2" stroke="none" fill="black"/>
<circle id="qubit_dot:12:5_3:14" cx="498.219" cy="637.505" r="2" stroke="none" fill="black"/>
<circle id="qubit_dot:13:6_2:14" cx="520.846" cy="614.878" r="2" stroke="none" fill="black"/>
<circle id="qubit_dot:14:0_4:14" cx="385.082" cy="660.133" r="2" stroke="none" fill="black"/>
<circle id="qubit_dot:15:1_5:14" cx="407.709" cy="682.76" r="2" stroke="none" fill="black"/>
<circle id="qubit_dot:16:2_4:14" cx="430.337" cy="660.133" r="2" stroke="none" fill="black"/>
<circle id="qubit_dot:17:3_5:14" cx="452.964" cy="682.76" r="2" stroke="none" fill="black"/>
<circle id="qubit_dot:18:4_4:14" cx="475.592" cy="660.133" r="2" stroke="none" fill="black"/>
<circle id="qubit_dot:19:5_5:14" cx="498.219" cy="682.76" r="2" stroke="none" fill="black"/>
<circle id="qubit_dot:25:4_6:14" cx="475.592" cy="705.387" r="2" stroke="none" fill="black"/>
</g>
<g id="tick_borders">
<rect id="tick_border:0:0_0:0" x="0" y="0" width="167.764" height="167.764" stroke="black" fill="none"/>
<rect id="tick_border:1:1_0:1" x="0" y="184.541" width="167.764" height="167.764" stroke="black" fill="none"/>
<rect id="tick_border:2:2_0:2" x="0" y="369.082" width="167.764" height="167.764" stroke="black" fill="none"/>
<rect id="tick_border:3:3_0:3" x="0" y="553.623" width="167.764" height="167.764" stroke="black" fill="none"/>
<rect id="tick_border:4:0_1:4" x="184.541" y="0" width="167.764" height="167.764" stroke="black" fill="none"/>
<rect id="tick_border:5:1_1:5" x="184.541" y="184.541" width="167.764" height="167.764" stroke="black" fill="none"/>
<rect id="tick_border:6:2_1:6" x="184.541" y="369.082" width="167.764" height="167.764" stroke="black" fill="none"/>
<rect id="tick_border:7:3_1:7" x="184.541" y="553.623" width="167.764" height="167.764" stroke="black" fill="none"/>
<rect id="tick_border:8:0_2:8" x="369.082" y="0" width="167.764" height="167.764" stroke="black" fill="none"/>
<rect id="tick_border:9:1_2:9" x="369.082" y="184.541" width="167.764" height="167.764" stroke="black" fill="none"/>
<rect id="tick_border:10:2_2:10" x="369.082" y="369.082" width="167.764" height="167.764" stroke="black" fill="none"/>
<rect id="tick_border:11:3_2:11" x="369.082" y="553.623" width="167.764" height="167.764" stroke="black" fill="none"/>
<rect id="tick_border:12:0_3:12" x="553.623" y="0" width="167.764" height="167.764" stroke="black" fill="none"/>
<rect id="tick_border:13:1_3:13" x="553.623" y="184.541" width="167.764" height="167.764" stroke="black" fill="none"/>
<rect id="tick_border:14:2_3:14" x="553.623" y="369.082" width="167.764" height="167.764" stroke="black" fill="none"/>
</g>
</svg>