<svg viewBox="0 0 194.868 194.868"  version="1.1" xmlns="http://www.w3.org/2000/svg">
<path d="M51.8342,112.134 L6.00444,126.908 M51.8342,112.134 L81.8342,82.1342 M51.8342,112.134 L52.4342,112.434 M81.8342,82.1342 L111.834,112.134 M81.8342,82.1342 L82.4342,82.4342 M81.8342,82.1342 L82.4342,82.4342 M82.4342,52.4342 L66.6228,5 M81.8342,82.1342 L52.4342,112.434 M81.8342,82.1342 L52.4342,112.434 M82.4342,52.4342 L66.6228,5 M111.834,112.134 L139.547,140.424 M111.834,112.134 L141.834,82.1342 M111.834,112.134 L141.834,82.1342 M112.434,82.4342 L147.79,47.0788 M111.834,112.134 L82.4342,82.4342 M111.834,112.134 L82.4342,82.4342 M112.434,82.4342 L147.79,47.0788 M111.834,112.134 L82.4342,82.4342 M112.434,82.4342 L82.4342,112.434 M111.834,112.134 L82.4342,82.4342 M82.4342,112.434 L47.0788,147.79 M111.834,112.134 L82.4342,82.4342 M82.4342,112.434 L47.0788,147.79 M112.434,82.4342 L147.79,47.0788 M111.834,112.134 L52.4342,112.434 M111.834,112.134 L52.4342,112.434 M112.434,82.4342 L147.79,47.0788 M111.834,112.134 L52.4342,112.434 M82.4342,112.434 L47.0788,147.79 M111.834,112.134 L52.4342,112.434 M82.4342,112.434 L47.0788,147.79 M112.434,82.4342 L147.79,47.0788 M111.834,112.134 L112.434,112.434 M111.834,112.134 L112.434,112.434 M112.434,82.4342 L147.79,47.0788 M111.834,112.134 L112.434,112.434 M112.434,82.4342 L82.4342,112.434 M141.834,82.1342 L82.4342,82.4342 M141.834,82.1342 L82.4342,82.4342 M112.434,82.4342 L147.79,47.0788 M141.834,82.1342 L142.434,82.4342 M141.834,82.1342 L142.434,82.4342 M112.434,82.4342 L147.79,47.0788 M141.834,82.1342 L112.434,112.434 M141.834,82.1342 L112.434,112.434 M112.434,82.4342 L147.79,47.0788 M82.4342,52.4342 L66.6228,5 M82.4342,52.4342 L66.6228,5 M82.4342,52.4342 L66.6228,5 M82.4342,52.4342 L66.6228,5 M82.4342,52.4342 L66.6228,5 M112.434,82.4342 L147.79,47.0788 M82.4342,52.4342 L66.6228,5 M112.434,82.4342 L147.79,47.0788 M82.4342,82.4342 L52.4342,112.434 M82.4342,82.4342 L52.4342,112.434 M82.4342,52.4342 L66.6228,5 M82.4342,82.4342 L52.4342,112.434 M112.434,82.4342 L147.79,47.0788 M82.4342,82.4342 L52.4342,112.434 M82.4342,112.434 L47.0788,147.79 M82.4342,82.4342 L52.4342,112.434 M82.4342,112.434 L47.0788,147.79 M112.434,82.4342 L147.79,47.0788 M82.4342,82.4342 L112.434,112.434 M82.4342,82.4342 L112.434,112.434 M112.434,82.4342 L82.4342,112.434 M82.4342,82.4342 L53.0342,112.734 M82.4342,82.4342 L53.0342,112.734 M82.4342,112.434 L47.0788,147.79 M82.4342,82.4342 L83.0342,82.7342 M82.4342,82.4342 L83.0342,82.7342 M112.434,82.4342 L82.4342,112.434 M82.4342,82.4342 L83.0342,82.7342 M82.4342,112.434 L47.0788,147.79 M112.434,82.4342 L147.79,47.0788 M112.434,82.4342 L147.79,47.0788 M112.434,82.4342 L82.4342,112.434 M112.434,82.4342 L82.4342,112.434 M112.434,112.434 L83.0342,82.7342 M112.434,82.4342 L147.79,47.0788 M111.834,112.134 L139.547,140.424 M112.434,82.4342 L147.79,47.0788 M112.434,82.4342 L147.79,47.0788 M82.4342,52.4342 L66.6228,5 M112.434,82.4342 L147.79,47.0788 M82.4342,52.4342 L66.6228,5 M112.434,82.4342 L147.79,47.0788 M112.434,82.4342 L147.79,47.0788 M112.434,82.4342 L147.79,47.0788 M112.434,82.4342 L147.79,47.0788 M112.434,82.4342 L147.79,47.0788 M82.4342,112.434 L47.0788,147.79 M112.434,82.4342 L147.79,47.0788 M82.4342,112.434 L47.0788,147.79 M112.434,82.4342 L147.79,47.0788 M112.434,82.4342 L147.79,47.0788 M112.434,82.4342 L147.79,47.0788 M112.434,82.4342 L147.79,47.0788 M82.4342,112.434 L47.0788,147.79 M112.434,82.4342 L147.79,47.0788 M82.4342,112.434 L47.0788,147.79 M142.434,82.4342 L112.434,112.434 M142.434,82.4342 L112.434,112.434 M112.434,82.4342 L147.79,47.0788 M142.434,82.4342 L112.434,112.434 M112.434,82.4342 L147.79,47.0788 M82.4342,112.434 L47.0788,147.79 M142.434,82.4342 L112.434,112.434 M82.4342,112.434 L47.0788,147.79 M142.434,82.4342 L112.434,112.434 M112.434,142.434 L128.246,189.868 M142.434,82.4342 L83.0342,82.7342 M142.434,82.4342 L83.0342,82.7342 M112.434,82.4342 L147.79,47.0788 M142.434,82.4342 L83.0342,82.7342 M112.434,82.4342 L147.79,47.0788 M82.4342,112.434 L47.0788,147.79 M142.434,82.4342 L83.0342,82.7342 M82.4342,112.434 L47.0788,147.79 M142.434,82.4342 L113.034,112.734 M142.434,82.4342 L113.034,112.734 M112.434,142.434 L128.246,189.868 M142.434,82.4342 L143.034,82.7342 M52.4342,112.434 L5,128.246 M52.4342,112.434 L53.0342,112.734 M52.4342,112.434 L53.0342,112.734 M82.4342,112.434 L47.0788,147.79 M52.4342,112.434 L5,128.246 M51.8342,112.134 L6.00444,126.908 M52.4342,112.434 L5,128.246 M111.834,112.134 L139.547,140.424 M82.4342,112.434 L47.0788,147.79 M82.4342,112.434 L47.0788,147.79 M111.834,112.134 L139.547,140.424 M82.4342,112.434 L47.0788,147.79 M82.4342,112.434 L47.0788,147.79 M112.434,82.4342 L147.79,47.0788 M82.4342,112.434 L47.0788,147.79 M112.434,82.4342 L147.79,47.0788 M111.834,112.134 L139.547,140.424 M82.4342,112.434 L47.0788,147.79 M52.4342,112.434 L5,128.246 M82.4342,112.434 L47.0788,147.79 M52.4342,112.434 L5,128.246 M111.834,112.134 L139.547,140.424 M82.4342,112.434 L47.0788,147.79 M112.434,112.434 L147.79,147.79 M82.4342,112.434 L47.0788,147.79 M112.434,112.434 L147.79,147.79 M111.834,112.134 L139.547,140.424 M82.4342,112.434 L47.0788,147.79 M112.434,112.434 L147.79,147.79 M112.434,82.4342 L147.79,47.0788 M82.4342,112.434 L47.0788,147.79 M112.434,112.434 L147.79,147.79 M112.434,82.4342 L147.79,47.0788 M111.834,112.134 L139.547,140.424 M82.4342,112.434 L47.0788,147.79 M112.434,112.434 L147.79,147.79 M112.434,142.434 L128.246,189.868 M82.4342,112.434 L47.0788,147.79 M112.434,142.434 L128.246,189.868 M82.4342,112.434 L47.0788,147.79 M53.0342,112.734 L8.41048,128.111 M82.4342,112.434 L47.0788,147.79 M53.0342,112.734 L8.41048,128.111 M52.4342,112.434 L5,128.246 M82.4342,112.434 L47.0788,147.79 M53.0342,112.734 L8.41048,128.111 M112.434,112.434 L147.79,147.79 M112.434,112.434 L147.79,147.79 M112.434,112.434 L53.0342,112.734 M112.434,112.434 L53.0342,112.734 M82.4342,112.434 L47.0788,147.79 M112.434,112.434 L83.0342,82.7342 M112.434,112.434 L83.0342,82.7342 M112.434,82.4342 L147.79,47.0788 M112.434,112.434 L83.0342,82.7342 M112.434,82.4342 L147.79,47.0788 M82.4342,112.434 L47.0788,147.79 M112.434,112.434 L83.0342,82.7342 M82.4342,112.434 L47.0788,147.79 M112.434,112.434 L113.034,112.734 M112.434,112.434 L113.034,112.734 M112.434,142.434 L128.246,189.868 M112.434,112.434 L147.79,147.79 M111.834,112.134 L139.547,140.424 M112.434,112.434 L147.79,147.79 M112.434,82.4342 L147.79,47.0788 M112.434,112.434 L147.79,147.79 M112.434,82.4342 L147.79,47.0788 M111.834,112.134 L139.547,140.424 M112.434,112.434 L147.79,147.79 M112.434,142.434 L128.246,189.868 M112.434,142.434 L128.246,189.868 M112.434,142.434 L128.246,189.868 M82.4342,112.434 L47.0788,147.79 M112.434,142.434 L128.246,189.868 M82.4342,112.434 L47.0788,147.79 M112.434,112.434 L147.79,147.79 M112.434,142.434 L128.246,189.868 M112.434,112.434 L147.79,147.79 M112.434,142.434 L128.246,189.868 M113.034,112.734 L143.056,142.179 M112.434,142.434 L128.246,189.868 M113.034,112.734 L143.056,142.179 M112.434,112.434 L147.79,147.79 M53.0342,112.734 L8.41048,128.111 M53.0342,112.734 L83.0342,82.7342 M53.0342,112.734 L83.0342,82.7342 M82.4342,112.434 L47.0788,147.79 M53.0342,112.734 L8.41048,128.111 M52.4342,112.434 L5,128.246 M53.0342,112.734 L8.41048,128.111 M112.434,112.434 L147.79,147.79 M83.0342,82.7342 L113.034,112.734 M82.4342,112.434 L47.0788,147.79 M82.4342,112.434 L47.0788,147.79 M113.034,112.734 L143.056,142.179 M113.034,112.734 L143.034,82.7342 M113.034,112.734 L143.056,142.179 M112.434,112.434 L147.79,147.79" stroke="black" fill="none" stroke-width="0.2"/>
<path d="M81.8342,82.1342 L51.812,52.6893 M141.834,82.1342 L186.458,66.7571 M81.8342,82.1342 L51.812,52.6893 M82.4342,82.4342 L47.0788,47.0788 M82.4342,82.4342 L47.0788,47.0788 M81.8342,82.1342 L51.812,52.6893 M82.4342,82.4342 L47.0788,47.0788 M82.4342,82.4342 L47.0788,47.0788 M82.4342,82.4342 L47.0788,47.0788 M81.8342,82.1342 L51.812,52.6893 M82.4342,82.4342 L47.0788,47.0788 M141.834,82.1342 L186.458,66.7571 M82.4342,82.4342 L47.0788,47.0788 M141.834,82.1342 L186.458,66.7571 M82.4342,82.4342 L47.0788,47.0788 M82.4342,82.4342 L47.0788,47.0788 M82.4342,82.4342 L47.0788,47.0788 M141.834,82.1342 L186.458,66.7571 M142.434,82.4342 L189.868,66.6228 M142.434,82.4342 L189.868,66.6228 M141.834,82.1342 L186.458,66.7571 M82.4342,82.4342 L47.0788,47.0788 M83.0342,82.7342 L55.3214,54.444 M83.0342,82.7342 L55.3214,54.444 M82.4342,82.4342 L47.0788,47.0788 M83.0342,82.7342 L55.3214,54.444 M142.434,82.4342 L189.868,66.6228 M83.0342,82.7342 L55.3214,54.444 M83.0342,82.7342 L55.3214,54.444 M82.4342,82.4342 L47.0788,47.0788 M142.434,82.4342 L189.868,66.6228 M142.434,82.4342 L189.868,66.6228 M141.834,82.1342 L186.458,66.7571 M82.4342,82.4342 L47.0788,47.0788 M83.0342,82.7342 L55.3214,54.444 M83.0342,82.7342 L55.3214,54.444 M82.4342,82.4342 L47.0788,47.0788 M83.0342,82.7342 L55.3214,54.444 M142.434,82.4342 L189.868,66.6228 M83.0342,82.7342 L55.3214,54.444 M83.0342,82.7342 L55.3214,54.444 M82.4342,82.4342 L47.0788,47.0788 M143.034,82.7342 L188.864,67.9601 M143.034,82.7342 L188.864,67.9601 M142.434,82.4342 L189.868,66.6228" stroke="red" fill="none" stroke-width="0.2"/>
<circle cx="51.8342" cy="112.134" r="0.5" stroke="none" fill="black"/>
<circle cx="81.8342" cy="82.1342" r="0.5" stroke="none" fill="black"/>
<circle cx="111.834" cy="112.134" r="0.5" stroke="none" fill="black"/>
<circle cx="141.834" cy="82.1342" r="0.5" stroke="none" fill="black"/>
<circle cx="82.4342" cy="52.4342" r="0.5" stroke="none" fill="black"/>
<circle cx="82.4342" cy="82.4342" r="0.5" stroke="none" fill="black"/>
<circle cx="112.434" cy="82.4342" r="0.5" stroke="none" fill="black"/>
<circle cx="142.434" cy="82.4342" r="0.5" stroke="none" fill="black"/>
<circle cx="52.4342" cy="112.434" r="0.5" stroke="none" fill="black"/>
<circle cx="82.4342" cy="112.434" r="0.5" stroke="none" fill="black"/>
<circle cx="112.434" cy="112.434" r="0.5" stroke="none" fill="black"/>
<circle cx="112.434" cy="142.434" r="0.5" stroke="none" fill="black"/>
<circle cx="53.0342" cy="112.734" r="0.5" stroke="none" fill="black"/>
<circle cx="83.0342" cy="82.7342" r="0.5" stroke="none" fill="black"/>
<circle cx="113.034" cy="112.734" r="0.5" stroke="none" fill="black"/>
<circle cx="143.034" cy="82.7342" r="0.5" stroke="none" fill="black"/>
</svg>